<svg id="Layer_1" data-name="Layer 1" xmlns="http://www.w3.org/2000/svg" xmlns:xlink="http://www.w3.org/1999/xlink" viewBox="0 0 300 345"><defs><style>.cls-1{fill:url(#linear-gradient);}.cls-2{fill:#9bd4ee;}.cls-3{fill:#416eb5;}.cls-4{fill:#15141a;}.cls-5{fill:#fff;}.cls-6{fill:#5588b7;}.cls-7{fill:#296694;}.cls-8{fill:#fbf0ee;}.cls-9{fill:#c4ada9;}.cls-10{fill:#182a38;}.cls-11,.cls-12{fill:#ecf7fe;}.cls-12{stroke:#c4ada9;stroke-width:2px;}.cls-12,.cls-13,.cls-16,.cls-17{stroke-miterlimit:10;}.cls-13,.cls-16,.cls-17{fill:none;stroke-linecap:round;stroke-width:6px;}.cls-13{stroke:#cf1f3d;}.cls-14{fill:#f38db6;}.cls-15{fill:#d463a1;}.cls-16{stroke:#032657;}.cls-17{stroke:#1a4687;}</style><linearGradient id="linear-gradient" x1="150" y1="356.11" x2="150" y2="161.16" gradientUnits="userSpaceOnUse"><stop offset="0.07" stop-color="#416eb5"/><stop offset="0.54" stop-color="#032657"/></linearGradient></defs><g id="underwater_2" data-name="underwater 2"><path class="cls-1" d="M263.62,345H36.38A36.38,36.38,0,0,1,0,308.62V259.14H300v49.48A36.38,36.38,0,0,1,263.62,345Z"/><rect class="cls-2" y="45" width="300" height="253.39" rx="36.38"/><rect class="cls-3" y="211" width="300" height="87.39" rx="36.38"/><ellipse class="cls-4" cx="216" cy="180.09" rx="14.97" ry="16.34" transform="matrix(0.94, -0.34, 0.34, 0.94, -48.51, 84.56)"/><ellipse class="cls-4" cx="84" cy="180.09" rx="16.34" ry="14.97" transform="translate(-113.94 197.56) rotate(-70.04)"/><circle class="cls-5" cx="218.51" cy="172.47" r="4.59"/><circle class="cls-5" cx="81.49" cy="172.47" r="4.59"/><path class="cls-6" d="M114,236.61l6-5.33,6,5.33a36.17,36.17,0,0,0,48,0l6-5.33,6,5.34a36.19,36.19,0,0,0,45.07,2.31C226.6,120.7,150,104.53,150,104.53S73.4,120.7,68.89,238.93A36.18,36.18,0,0,0,114,236.61Z"/><path class="cls-7" d="M210.91,156.49a115.65,115.65,0,0,0-27.85-34.24c-4.75,4.07-10.05,13.73-8.54,17.37,1.31,3.16,9,4.31,15,3.48a4.41,4.41,0,0,0,1.39,1.5l3.37,2.22a4.5,4.5,0,0,0,1.93.69c1.58,5.81,5.7,12.47,9.11,12.42C206.91,159.92,208.93,158.53,210.91,156.49Z"/><path class="cls-7" d="M186,224.38,180,219l-6,5.34a36.17,36.17,0,0,1-48,0L120,219l-6,5.34a36.18,36.18,0,0,1-44.35,2.81q-.48,5.7-.72,11.74A36.18,36.18,0,0,0,114,236.61l6-5.33,6,5.33a36.17,36.17,0,0,0,48,0l6-5.33,6,5.34a36.19,36.19,0,0,0,45.07,2.31q-.24-6-.72-11.74A36.16,36.16,0,0,1,186,224.38Z"/><path class="cls-8" d="M171.41,133.67a33.94,33.94,0,0,0-42.57.21c-20.13,16.35-47.35,47.35-47.35,95.5V244.7A36.17,36.17,0,0,0,114,236.61l6-5.33,6,5.33a36.17,36.17,0,0,0,48,0l6-5.33,6,5.34a36.14,36.14,0,0,0,32.47,8.08V229.38C218.51,180.45,191.51,149.75,171.41,133.67Z"/><path class="cls-9" d="M174.49,136.22a5.94,5.94,0,0,0,0,3.4c.79,1.9,3.9,3.06,7.54,3.52C179.5,140.62,177,138.31,174.49,136.22Z"/><path class="cls-9" d="M186,224.38,180,219l-6,5.34a36.17,36.17,0,0,1-48,0L120,219l-6,5.34a36.14,36.14,0,0,1-32.47,8.08V244.7A36.17,36.17,0,0,0,114,236.61l6-5.33,6,5.33a36.17,36.17,0,0,0,48,0l6-5.33,6,5.34a36.17,36.17,0,0,0,32.47,8.08V232.47A36.17,36.17,0,0,1,186,224.38Z"/><path class="cls-10" d="M157,114.1l11.12,2.36a4.11,4.11,0,0,1-1.71,8.05,4.05,4.05,0,0,1-2.38-1.48Z"/><path class="cls-10" d="M143,114.1,136,123a4.12,4.12,0,1,1-6.47-5.09,4.18,4.18,0,0,1,2.38-1.48Z"/><path class="cls-9" d="M141.65,181.43a5.36,5.36,0,0,1-5.35-5.35V165.91h27.4v10.17a5.36,5.36,0,0,1-5.35,5.35Z"/><path class="cls-9" d="M162.7,166.91v9.17a4.35,4.35,0,0,1-4.35,4.35h-16.7a4.35,4.35,0,0,1-4.35-4.35v-9.17h25.4m2-2H135.3v11.17a6.36,6.36,0,0,0,6.35,6.35h16.7a6.36,6.36,0,0,0,6.35-6.35V164.91Z"/><path class="cls-11" d="M141.65,176.57a5.36,5.36,0,0,1-5.35-5.35V161.05h27.4v10.17a5.36,5.36,0,0,1-5.35,5.35Z"/><path class="cls-9" d="M162.7,162.05v9.17a4.35,4.35,0,0,1-4.35,4.35h-16.7a4.35,4.35,0,0,1-4.35-4.35v-9.17h25.4m2-2H135.3v11.17a6.36,6.36,0,0,0,6.35,6.35h16.7a6.36,6.36,0,0,0,6.35-6.35V160.05Z"/><line class="cls-12" x1="150" y1="162.05" x2="150" y2="177.39"/><path class="cls-13" d="M172,152.52s-4.18,9.58-22,9.58-22-9.58-22-9.58"/><path class="cls-14" d="M200.48,133.89c-2.91,4.42-19.75,4.23-21.73-.56s7.81-20,12.65-19.2S203.4,129.46,200.48,133.89Z"/><path class="cls-14" d="M200.48,133.89c-2.91,4.42,3.9,19.81,9.09,19.75s15.31-15.08,12.65-19.2S203.4,129.46,200.48,133.89Z"/><rect class="cls-15" x="193.92" y="127.5" width="12.99" height="12.99" rx="4.48" transform="translate(294.01 356.16) rotate(-146.61)"/><path class="cls-16" d="M92.83,318.21l3.82,3.38a23,23,0,0,0,30.46,0l3.83-3.39,3.83,3.39a23,23,0,0,0,30.46,0l3.82-3.39,3.83,3.39a23,23,0,0,0,30.46,0l3.83-3.39"/><path class="cls-17" d="M18.38,274.82l3.82,3.39a23,23,0,0,0,30.46,0l3.83-3.39,3.83,3.39a23,23,0,0,0,30.46,0l3.82-3.39,3.83,3.39a23,23,0,0,0,30.46,0l3.83-3.39"/><path class="cls-17" d="M167.28,274.82l3.82,3.39a23,23,0,0,0,30.47,0l3.82-3.39,3.83,3.39a23,23,0,0,0,30.46,0l3.82-3.39,3.83,3.39a23,23,0,0,0,30.46,0l3.83-3.39"/><path class="cls-3" d="M252.46,155.65c-7.49,3.69-16.11-1-16.11-1s1.51-9.71,9-13.4a8,8,0,0,1,7.12,14.41Z"/><path class="cls-3" d="M266.1,166.83c-5.6.61-10-4.35-10-4.35s3.19-5.81,8.79-6.43a5.42,5.42,0,0,1,1.19,10.78Z"/><path class="cls-3" d="M59.77,142.78c5.77,6,15.48,4.56,15.48,4.56s1.9-9.64-3.88-15.67a8,8,0,1,0-11.6,11.11Z"/><path class="cls-3" d="M43.13,148.63C48.17,151.12,54,148,54,148s-1-6.54-6.07-9a5.42,5.42,0,0,0-4.79,9.72Z"/></g></svg>