<svg id="Layer_1" data-name="Layer 1" xmlns="http://www.w3.org/2000/svg" xmlns:xlink="http://www.w3.org/1999/xlink" viewBox="0 0 300 345"><defs><style>.cls-1,.cls-5{fill:none;}.cls-2{fill:url(#linear-gradient);}.cls-3{fill:#25afe5;}.cls-4{fill:#e7bf9a;}.cls-5{stroke:#994e23;stroke-linecap:round;stroke-miterlimit:10;stroke-width:3.66px;}.cls-6{fill:#8e1a4c;}.cls-7{fill:url(#linear-gradient-2);}.cls-8{fill:url(#linear-gradient-3);}.cls-9{fill:url(#linear-gradient-4);}.cls-10{fill:url(#linear-gradient-5);}.cls-11{fill:url(#linear-gradient-6);}.cls-12{fill:url(#linear-gradient-7);}.cls-13{fill:url(#linear-gradient-8);}.cls-14{fill:url(#linear-gradient-9);}.cls-15{fill:url(#linear-gradient-10);}.cls-16{fill:url(#linear-gradient-11);}.cls-17{fill:url(#linear-gradient-12);}.cls-18{fill:url(#linear-gradient-13);}.cls-19{fill:url(#linear-gradient-14);}.cls-20{fill:url(#linear-gradient-15);}.cls-21{fill:url(#linear-gradient-16);}.cls-22{fill:url(#linear-gradient-17);}.cls-23{fill:url(#linear-gradient-18);}.cls-24{fill:#f7941d;}.cls-25{fill:#15141a;}.cls-26{clip-path:url(#clip-path);}.cls-27{fill:#fff;}.cls-28{fill:#231f20;}</style><linearGradient id="linear-gradient" x1="150" y1="356.11" x2="150" y2="161.16" gradientUnits="userSpaceOnUse"><stop offset="0" stop-color="#e7bf9a"/><stop offset="0.69" stop-color="#b7785f"/></linearGradient><linearGradient id="linear-gradient-2" x1="30.77" y1="206.47" x2="96.79" y2="206.47" gradientTransform="translate(-72.81 45.22) rotate(-24.85)" gradientUnits="userSpaceOnUse"><stop offset="0" stop-color="#ee5f9b"/><stop offset="1" stop-color="#c4165d"/></linearGradient><linearGradient id="linear-gradient-3" x1="38.96" y1="195.11" x2="78.04" y2="195.11" gradientTransform="translate(-35.84 21.31) rotate(-13.75)" xlink:href="#linear-gradient-2"/><linearGradient id="linear-gradient-4" x1="60.35" y1="170.58" x2="111.71" y2="170.58" gradientTransform="translate(-34.15 25.72) rotate(-13.53)" xlink:href="#linear-gradient-2"/><linearGradient id="linear-gradient-5" x1="76.9" y1="170.23" x2="145.33" y2="170.23" gradientTransform="matrix(1, 0, 0, 1, 0, 0)" xlink:href="#linear-gradient-2"/><linearGradient id="linear-gradient-6" x1="83.25" y1="187.73" x2="148.41" y2="187.73" gradientTransform="matrix(1, 0, 0, 1, 0, 0)" xlink:href="#linear-gradient-2"/><linearGradient id="linear-gradient-7" x1="122.84" y1="200.11" x2="155.56" y2="200.11" gradientTransform="translate(-17.3 14.52) rotate(-5.48)" xlink:href="#linear-gradient-2"/><linearGradient id="linear-gradient-8" x1="136.53" y1="186.75" x2="173.52" y2="186.75" gradientTransform="matrix(1, 0, 0, 1, 0, 0)" xlink:href="#linear-gradient-2"/><linearGradient id="linear-gradient-9" x1="152.16" y1="174.06" x2="193.96" y2="174.06" gradientTransform="matrix(1, 0, 0, 1, 0, 0)" xlink:href="#linear-gradient-2"/><linearGradient id="linear-gradient-10" x1="167.77" y1="174.1" x2="215.14" y2="174.1" gradientTransform="matrix(1, 0, 0, 1, 0, 0)" xlink:href="#linear-gradient-2"/><linearGradient id="linear-gradient-11" x1="178.72" y1="185.09" x2="239.89" y2="185.09" gradientTransform="matrix(1, 0, 0, 1, 0, 0)" xlink:href="#linear-gradient-2"/><linearGradient id="linear-gradient-12" x1="187.89" y1="202.62" x2="258.24" y2="202.62" gradientTransform="matrix(1, 0, 0, 1, 0, 0)" xlink:href="#linear-gradient-2"/><linearGradient id="linear-gradient-13" x1="202.55" y1="240.84" x2="231.93" y2="240.84" gradientTransform="matrix(1, 0, 0, 1, 0, 0)" xlink:href="#linear-gradient-2"/><linearGradient id="linear-gradient-14" x1="199.24" y1="225.51" x2="279.9" y2="225.51" gradientTransform="matrix(1, 0, 0, 1, 0, 0)" xlink:href="#linear-gradient-2"/><linearGradient id="linear-gradient-15" x1="220.33" y1="245.25" x2="267.54" y2="245.25" gradientTransform="matrix(1, 0, 0, 1, 0, 0)" xlink:href="#linear-gradient-2"/><linearGradient id="linear-gradient-16" x1="23.08" y1="250.18" x2="75.33" y2="250.18" gradientTransform="matrix(1, 0, 0, 1, 0, 0)" xlink:href="#linear-gradient-2"/><linearGradient id="linear-gradient-17" x1="46.4" y1="245.63" x2="99.96" y2="245.63" gradientTransform="matrix(1, 0, 0, 1, 0, 0)" xlink:href="#linear-gradient-2"/><linearGradient id="linear-gradient-18" x1="86.33" y1="241.5" x2="131.72" y2="241.5" gradientTransform="matrix(1, 0, 0, 1, 0, 0)" xlink:href="#linear-gradient-2"/><clipPath id="clip-path"><path class="cls-1" d="M170.06,229.11c50.29-.25,61.49-21.12,61.53-34,.06-19.07-20.6-24.68-30-27.58-7.9-2.44-5.19-2.89-14.13-11.06s-17.61-13.77-33-10.62c-14.45,3-11,20.41-11,20.41s-18.85-10.4-24.24,3.31c-4.09,10.39,4.93,11.48-3.83,17.06s-10.47-6.84-30.9-2.76-20.93,39.83-4.34,47.49,26.05-2.81,33.45-10.21,24-2.55,29.86,2.55S170.06,229.11,170.06,229.11Z"/></clipPath></defs><g id="underwater"><path class="cls-2" d="M263.62,345H36.38A36.38,36.38,0,0,1,0,308.62V259.14H300v49.48A36.38,36.38,0,0,1,263.62,345Z"/><rect class="cls-3" y="45" width="300" height="253.39" rx="36.38"/><rect class="cls-4" y="208.2" width="300" height="90.19" rx="36.38"/><path class="cls-5" d="M54.64,252.53s-15.78-1.59-31.08,3.83"/><path class="cls-5" d="M258.24,240.42s9.24-7,24.87-.65"/><path class="cls-6" d="M131.37,283.08c-1-4.83-1.93-9.86-2.79-15H117.87l-2.82,1.31-1.08-.32c-1.07-.31-2.12-.64-3.18-1h-1.7l1.51,1.59-27.94,6.83-1.2-1.44c-1.4-1.68-2.75-3.41-4.1-5.23a13,13,0,0,1-23,2.19,94.2,94.2,0,0,0-27.94-25.39,13,13,0,0,1-4.5-17.88,13,13,0,0,1,17.87-4.5c2.1,1.26,4.21,2.61,6.28,4A13.31,13.31,0,0,1,48.3,226c.32-.24.64-.48,1-.69a188.39,188.39,0,0,1-12.82-16.85,205.45,205.45,0,0,1-23.6-46.35,13,13,0,0,1,20.39-14.34l-.71-4.19L32.1,141l-.4-2.73a17.06,17.06,0,0,1,14.42-19.36,17.06,17.06,0,0,1,18.55,11.18q.28-4.36.66-8.67c.34-3.9.74-7.76,1.19-11.49.23-1.93.48-3.85.75-5.79l.43-2.9.07-.47c.14-.86.27-1.67.45-2.69l0-.13A16.71,16.71,0,0,1,84.7,84.18a17.76,17.76,0,0,1,3,.26,16.75,16.75,0,0,1,13.75,16.32c1.71-3.27,3.51-6.52,5.37-9.68,1.19-2,2.3-3.83,3.38-5.52.6-.93,1.2-1.85,1.84-2.8l1-1.4.55-.77.74-1a19.1,19.1,0,0,1,29.9,23.76l-1.07,1.35h0l-.23.28c-.48.62-1,1.28-1.46,1.94s-1.12,1.53-1.71,2.38A16.79,16.79,0,0,1,146.2,106a17.21,17.21,0,0,1,4.28-.55c.5,0,1,0,1.5.07l-.49-1-.34-.65.83-.46-.85.44a16.08,16.08,0,1,1,28.23-15.42c.23.43.34.66.45.89l.12.23a15.79,15.79,0,0,1,29.65,2.1c0,.13.09.34.13.47.27,1.11.47,2,.68,2.91l.09.42.67,3.12c.43,2.08.82,4.14,1.21,6.2.16.86.31,1.7.45,2.53a16.34,16.34,0,0,1,2.28-3.06,16,16,0,0,1,11.23-5h.49a16,16,0,0,1,16.07,15.62c0,.16,0,.38,0,.54l0,3-.05,2.86-.17,5.63c-.14,3.45-.27,6.28-.43,8.87a12.9,12.9,0,0,1,5.92-1.43l.62,0a13,13,0,0,1,12.46,13.56,253.16,253.16,0,0,1-10.17,56.33c4.47-7.92,6.83-13.27,6.87-13.37a13,13,0,0,1,12-7.83,12.85,12.85,0,0,1,5.17,1.08,13,13,0,0,1,6.78,17.12,209.27,209.27,0,0,1-14.17,26.15l0,0a13,13,0,0,1-2.06,18.32A98.31,98.31,0,0,0,246,266.78l-.9,1.31H219.21c-.47.61-1,1.21-1.44,1.82l-.9,1.1H172.11l2.56-2.92H159.32c.7,3.93,1.45,7.76,2.23,11.44l.69,3.28-30.33,2.91Z"/><path class="cls-6" d="M129.24,75.36a16.11,16.11,0,0,1,12.6,26.11h0l-.23.28-.35.42-.74.94c-.51.65-1,1.33-1.52,2-1,1.38-2,2.81-3,4.26-.84,1.24-1.67,2.51-2.49,3.79a14.36,14.36,0,0,1,3,1.27,16.3,16.3,0,0,1,1.8,1.23,13.9,13.9,0,0,1,8.7-6.81,14.28,14.28,0,0,1,3.52-.45,14,14,0,0,1,6.84,1.8c-.49-1.22-1-2.43-1.52-3.61-.35-.8-.72-1.59-1.08-2.34l-.54-1.09-.26-.5-.16-.3v0a13.08,13.08,0,1,1,22.95-12.54c.28.51.37.71.53,1l.41.85c.27.56.49,1.08.73,1.61.47,1.06.91,2.09,1.33,3.13.83,2.07,1.61,4.12,2.32,6.17q1.58,4.51,2.9,9c-.1-.48-.19-1-.29-1.45-.41-1.86-.82-3.72-1.26-5.55l-.67-2.74c-.22-.87-.47-1.85-.66-2.54h0a12.82,12.82,0,0,1,8.85-15.8,13.15,13.15,0,0,1,3.48-.48,12.81,12.81,0,0,1,12.32,9.34l.1.38c.31,1.24.52,2.19.76,3.26l.65,3.09c.43,2,.82,4.09,1.2,6.13q1.11,6.1,2,12.23,1.4,9.48,2.28,19c.1-3.47.14-6.93.16-10.39l0-5.2,0-2.58-.08-2.45v-.29a13.08,13.08,0,0,1,12.69-13.47h.4a13.08,13.08,0,0,1,13.07,12.7c0,.14,0,.33,0,.46l0,3-.05,2.82-.17,5.59c-.15,3.71-.32,7.41-.56,11.11q-.21,3.25-.47,6.51a10,10,0,0,1,9.52-7.09h.48a10,10,0,0,1,9.61,10.44c-.11,2.52-2,40.73-18.85,80A207.37,207.37,0,0,0,260.67,192a10,10,0,0,1,9.21-6,9.87,9.87,0,0,1,4,.83,10,10,0,0,1,5.22,13.18,209.84,209.84,0,0,1-15.24,27.74,10.26,10.26,0,0,1,1.51,1.51,10,10,0,0,1-1.59,14.1,101.33,101.33,0,0,0-20.21,21.8h-25.8c-.76,1-1.53,2-2.31,2.92H178.72c.83-.94,1.63-1.92,2.42-2.92H155.75c.85,5,1.8,10.06,2.86,15.06l-24.3,2.33c-1.19-5.79-2.25-11.6-3.18-17.39H117.21l-2.4,1.11q-1.77-.52-3.54-1.11h-5.18l-1.72-2.52-1.48-.61c.17,1,.32,2.09.51,3.13h-1.12c.84,1,1.7,2,2.58,2.9l-21.09,5.16q-3.27-3.93-6.13-8.06H75.32a10,10,0,0,1-18.44,5.3A96.28,96.28,0,0,0,28,244.06a10,10,0,0,1,10.29-17.22c3.15,1.88,6.07,3.84,8.8,5.82a10,10,0,0,1,3.11-4.29,10.09,10.09,0,0,1,4.06-1.94,181,181,0,0,1-15.3-19.63,201.66,201.66,0,0,1-23.24-45.6A10,10,0,0,1,34.76,155a143.81,143.81,0,0,0,5.69,13.74q-1.16-5.19-2.2-10.41-1-5-1.91-10.1l-.86-5.09-.41-2.58-.4-2.71a14.06,14.06,0,0,1,11.88-16,13.09,13.09,0,0,1,2.06-.16,14.09,14.09,0,0,1,13.9,12c0,.27.07.54.1.81l0,.29.19,2.24.22,2.37.52,4.78q.54,4.78,1.2,9.59,1.17,8.56,2.67,17.08c-.06-1.2-.13-2.4-.18-3.6q-.5-11.43-.21-22.85t1.28-22.79q.5-5.68,1.17-11.39c.24-1.9.48-3.81.75-5.72l.43-2.9c.16-1,.29-1.89.5-3.06l0-.12a13.73,13.73,0,1,1,27,4.89c0,.26-.11.56-.17.81-.15.62-.35,1.54-.52,2.34L97,109.05c-.34,1.7-.65,3.42-1,5.15-.5,2.8-1,5.63-1.37,8.46,2.62-6.47,5.49-12.86,8.7-19.12,1.89-3.69,3.89-7.33,6-11,1.07-1.8,2.17-3.6,3.33-5.41.58-.91,1.17-1.81,1.79-2.73l1-1.4.52-.73.64-.87a16.07,16.07,0,0,1,12.61-6.09M106,224.77c-.71-4.35-1.33-8.72-1.76-13.13q-1-9.44-1.2-19a220.63,220.63,0,0,0-2.73,26.07,10,10,0,0,1,5.22,5.06l.47,1m43.87-13.08c-.08-2.08-.18-4.15-.3-6.23,0-.74-.09-1.49-.14-2.23q.18,4.17.44,8.46M131,264.32c-.08-.46-.15-.92-.22-1.37h-1c.41.46.82.92,1.24,1.37m-1.77-195h0a22,22,0,0,0-17.31,8.36l-.07.08-.07.09-.64.88,0,0,0,0-.52.73,0,0,0,0-1,1.4c-.68,1-1.31,2-1.89,2.87-1.1,1.73-2.23,3.56-3.44,5.61-.57,1-1.13,1.95-1.69,2.93A19.73,19.73,0,0,0,65.29,97.4l0,.12c-.19,1-.32,1.87-.46,2.74l-.07.46v.06l-.42,2.89c-.3,2.06-.54,4-.77,5.86-.45,3.79-.86,7.68-1.2,11.61v.06a20,20,0,0,0-13.72-5.5h0a20.53,20.53,0,0,0-2.93.22,20.08,20.08,0,0,0-16.94,22.76l.39,2.71v.06l.18,1.13a15.82,15.82,0,0,0-4.09-.53,16,16,0,0,0-15.24,21,208.1,208.1,0,0,0,24,47.1c3,4.43,6.15,8.71,9.43,12.78l-2-1.25a16,16,0,0,0-16.45,27.52,91.66,91.66,0,0,1,27,24.49A16.05,16.05,0,0,0,74,278.37a15.83,15.83,0,0,0,3.63-3.23L79.15,277l2.4,2.88,3.64-.89,21.1-5.16,7.18-1.76,1.81.54,2-1,1.2-.56h7.52c.74,4.3,1.54,8.51,2.38,12.6l1.08,5.28,5.37-.52,24.3-2.33,6.69-.64-1.39-6.57q-.81-3.81-1.56-7.82h5.14L165.51,274h52.78l1.8-2.21.58-.71h26.05l1.78-2.62a95.52,95.52,0,0,1,19-20.49,16.05,16.05,0,0,0,3.75-20.79,207.24,207.24,0,0,0,13.33-24.87A16,16,0,0,0,259.23,184a238.18,238.18,0,0,0,5-36,16,16,0,0,0-15.35-16.68l-.73,0a15.92,15.92,0,0,0-2.69.23c.07-1.4.13-2.89.2-4.52v-.06l.17-5.59v-.07l.05-2.82v-.08l0-3c0-.22,0-.48,0-.67a19,19,0,0,0-19.07-18.53h-.57a19,19,0,0,0-11.63,4.4c-.16-.86-.34-1.73-.52-2.61l-.67-3.12v-.07l-.09-.4c-.21-1-.41-1.84-.7-3,0-.18-.11-.42-.15-.57a18.81,18.81,0,0,0-32.56-6.92,19.09,19.09,0,0,0-29.74.52,22.08,22.08,0,0,0-20.93-15.06Z"/><path class="cls-7" d="M114.81,266.2l16.29-7.54a10,10,0,0,0-7.47-10.83C60.8,231.75,35.08,155.93,34.76,155a10,10,0,0,0-19.07,6.24,201.66,201.66,0,0,0,23.24,45.6C59.48,237.17,85.65,257.63,114.81,266.2Z"/><path class="cls-8" d="M62.15,237.09a206.52,206.52,0,0,0,9.58,18.8,131.5,131.5,0,0,0,12,17.26L104.86,268a69.91,69.91,0,0,1-5.46-6.55,111,111,0,0,1-9.48-15.52,186.68,186.68,0,0,1-7.47-17.22c-2.24-5.91-4.17-12-6-18.12A369.82,369.82,0,0,1,67.78,173q-1.71-9.54-3-19.15-.66-4.8-1.2-9.59L63,139.45l-.22-2.37-.19-2.24,0-.29c0-.27-.05-.54-.09-.82a14.07,14.07,0,0,0-27.84,4.08l.4,2.71.41,2.58.86,5.09q.9,5.07,1.91,10.1,2,10.07,4.44,20a391.47,391.47,0,0,0,11.72,39.46C56.77,224.26,59.27,230.72,62.15,237.09Z"/><path class="cls-9" d="M89,256.85l.24.42,18.92-4.55c-.81-1.5-1.6-3-2.36-4.57A135.58,135.58,0,0,1,98.53,229a190.93,190.93,0,0,1-7-41c-.49-7-.63-14-.54-21.1s.42-14.12,1-21.18,1.35-14.09,2.36-21.09q.75-5.25,1.67-10.44c.31-1.73.62-3.45,1-5.15l.52-2.54c.17-.8.37-1.72.52-2.34.06-.25.13-.55.17-.81a13.73,13.73,0,1,0-27-4.89l0,.12c-.21,1.17-.34,2.06-.5,3.06l-.43,2.9c-.27,1.91-.51,3.82-.75,5.72q-.67,5.7-1.17,11.39Q67.32,133,67,144.45t.21,22.85c.33,7.62.9,15.25,1.86,22.87A211.34,211.34,0,0,0,79.4,235.32,153.54,153.54,0,0,0,89,256.85Z"/><path class="cls-10" d="M82.77,265.09H103.4a223.59,223.59,0,0,1-3.26-43.38,213.23,213.23,0,0,1,5.74-43.27A215.39,215.39,0,0,1,112,157.55q3.6-10.28,8.17-20.12a211.3,211.3,0,0,1,10.08-19.08c1.84-3.06,3.76-6.06,5.73-9,1-1.45,2-2.88,3-4.26.51-.68,1-1.36,1.52-2l.74-.94.35-.42a2.76,2.76,0,0,1,.24-.28,16.1,16.1,0,0,0-25.21-20l-.64.87-.52.73-1,1.4c-.62.92-1.21,1.82-1.79,2.73-1.16,1.81-2.26,3.61-3.33,5.41-2.12,3.62-4.12,7.26-6,11a240.33,240.33,0,0,0-10.07,22.52q-4.44,11.46-7.73,23.29c-2.18,7.88-3.92,15.87-5.31,23.9a238.29,238.29,0,0,0-3.22,48.63A245.27,245.27,0,0,0,82.77,265.09Z"/><path class="cls-11" d="M107.55,233.81c.77,3.65,1.47,7.3,2.4,10.9l1.32,5.4,1.48,5.36c.71,2.5,1.46,5,2.22,7.48h22.72c-1.18-4.31-2.27-8.64-3.24-13l-1.1-5-.94-5c-.67-3.34-1.12-6.71-1.65-10.07-.89-6.72-1.65-13.45-1.93-20.18a186.45,186.45,0,0,1,2.06-39.82,144.08,144.08,0,0,1,4.4-19c.93-3.08,2-6.06,3.15-8.95.57-1.44,1.19-2.84,1.81-4.18.31-.67.64-1.33.95-1.94l.46-.87.21-.37c0-.06.17-.29.08-.12a14.67,14.67,0,0,0-25.5-14.52c-.31.56-.39.73-.56,1.06l-.39.82c-.26.54-.48,1-.7,1.53-.45,1-.85,2-1.24,2.94-.77,1.92-1.49,3.83-2.12,5.73-1.28,3.81-2.4,7.6-3.32,11.4a171,171,0,0,0-4,22.84,212.52,212.52,0,0,0,.09,45.39C104.93,219.11,106.17,226.49,107.55,233.81Z"/><path class="cls-12" d="M158.61,280.15c-14.82-70-8.62-146.65-8.52-147.75A12.11,12.11,0,1,0,126,130.34c-.35,4-6.53,79.76,8.36,152.14Z"/><path class="cls-13" d="M137.05,126.15l.59,2.26.6,2.41,1.14,4.86c.75,3.27,1.45,6.55,2.12,9.85q2,9.89,3.6,19.88c2.09,13.3,3.67,26.69,4.43,40.05.38,6.68.62,13.36.55,20s-.28,13.27-.9,19.81c-.11,1.65-.31,3.27-.5,4.9s-.34,3.26-.61,4.86l-.73,4.84-.91,4.77c0,.15-.07.29-.1.44H168c1.31-5.76,2.32-11.54,3.11-17.31,1-7.21,1.6-14.42,2-21.61s.49-14.37.42-21.53c-.14-14.31-1.15-28.54-2.68-42.68q-1.19-10.61-2.81-21.16-.83-5.28-1.76-10.56l-1-5.3-.53-2.66-.59-2.8c0-.2-.1-.44-.15-.64a14,14,0,0,0-27,7Z"/><path class="cls-14" d="M153.92,102.67l.26.5.54,1.09c.36.75.73,1.54,1.08,2.34.71,1.61,1.41,3.26,2,5,1.31,3.39,2.53,6.87,3.6,10.43a194.74,194.74,0,0,1,5.28,21.84,248,248,0,0,1,4,45.42l0,5.75-.21,5.75c0,1.92-.16,3.84-.29,5.75l-.38,5.76-.53,5.75-.27,2.88-.35,2.87-.69,5.75-.85,5.73c-1.51,10-3.48,20-5.83,29.85h21.3c2.23-8.67,4.19-17.43,5.82-26.27l1.09-6.07.94-6.1.46-3.05.39-3.07.77-6.14c.22-2,.4-4.11.6-6.16s.4-4.11.52-6.18l.41-6.19.25-6.21A273.09,273.09,0,0,0,191,139.77,219.14,219.14,0,0,0,185.86,115c-1.1-4.12-2.39-8.21-3.82-12.31-.71-2.05-1.49-4.1-2.32-6.17-.42-1-.86-2.07-1.33-3.13-.24-.53-.46-1-.73-1.62l-.41-.84c-.16-.33-.25-.53-.53-1a13.08,13.08,0,1,0-22.95,12.54Z"/><path class="cls-15" d="M183.34,234.13a126.35,126.35,0,0,1-8.65,20.14,109.7,109.7,0,0,1-6.92,10.82h24.62l.34-.55a148.23,148.23,0,0,0,10.87-23.38,198.63,198.63,0,0,0,10.45-49.37c.78-8.31,1.1-16.62,1.09-24.9s-.34-16.55-1-24.77-1.55-16.42-2.75-24.58q-.9-6.12-2-12.23c-.38-2-.77-4.08-1.2-6.13l-.65-3.09c-.24-1.07-.45-2-.76-3.26l-.1-.38a12.8,12.8,0,0,0-24.65,6.94h0c.19.69.44,1.67.66,2.54l.67,2.74c.44,1.83.85,3.69,1.26,5.55.79,3.74,1.53,7.5,2.19,11.28q2,11.33,3.22,22.79t1.56,22.92c.23,7.63.16,15.26-.33,22.82A177,177,0,0,1,183.34,234.13Z"/><path class="cls-16" d="M204.42,268c.13-.19.27-.38.39-.57a137.19,137.19,0,0,0,11.08-20.5,238.06,238.06,0,0,0,14-43.08q2.49-10.92,4.3-21.92t3-22q1.23-11,1.93-22.11c.24-3.7.41-7.4.56-11.11l.17-5.59.05-2.82,0-3c0-.13,0-.32,0-.46a13.09,13.09,0,0,0-26.16.78v.29l.08,2.45,0,2.58,0,5.2c0,3.49-.06,7-.17,10.48q-.28,10.49-1.08,21t-2.1,20.86q-1.35,10.36-3.28,20.59A216.4,216.4,0,0,1,196,238.48a115.9,115.9,0,0,1-8.8,17.79A84.23,84.23,0,0,1,178.72,268Z"/><path class="cls-17" d="M215.44,268c39.29-48.33,42.65-116.93,42.79-120.34a10,10,0,0,0-20.05-.83c0,.84-3.83,79.08-50.29,121.17Z"/><path class="cls-18" d="M222.64,265.09a100.13,100.13,0,0,1,8.42-34.39,10,10,0,0,0-18.33-8.16,119.53,119.53,0,0,0-10.18,42.55Z"/><path class="cls-19" d="M273.86,186.76a10,10,0,0,0-13.19,5.2c-.26.6-22.88,51.7-61.43,73.13h33.7c29.3-26.93,45.19-62.95,46.14-65.15A10,10,0,0,0,273.86,186.76Z"/><path class="cls-20" d="M243.55,265.09a101.33,101.33,0,0,1,20.21-21.8,10,10,0,1,0-12.51-15.68c-21.16,16.87-30.39,36.3-30.78,37.12l-.14.36Z"/><path class="cls-21" d="M75.24,263.57a10,10,0,0,0-1.5-4.07c-.49-.76-12.25-18.78-35.48-32.66A10,10,0,1,0,28,244.06a96.28,96.28,0,0,1,28.91,26.33,10,10,0,0,0,18.36-6.82Z"/><path class="cls-22" d="M72.4,265.09H99.92a10.05,10.05,0,0,0-5.68-10,96.53,96.53,0,0,1-30-25.12,10,10,0,1,0-15.68,12.51A120.89,120.89,0,0,0,72.4,265.09Z"/><path class="cls-23" d="M106.09,265.09h25.63c-13.94-14.72-26-40.88-26.23-41.32a10,10,0,1,0-18.25,8.34A237.57,237.57,0,0,0,106.09,265.09Z"/><path class="cls-4" d="M270.67,252.21c-22.46-4.85-33.71,8.5-33.71,8.5h0a50.43,50.43,0,0,0-7.67-.49,29.89,29.89,0,0,0-8.29,1.71,19.16,19.16,0,0,0-11.48-5.57,17.47,17.47,0,0,0-12.11,3.86s-2.55-3.86-10.21-3.86-13.7,5.57-13.7,5.57c-27.6-6-33.78,3.68-33.78,3.68h0A28.51,28.51,0,0,0,128,263.32a47.23,47.23,0,0,0-30.06-7c-16.07-3.42-31.74,3.85-31.74,3.85a34.91,34.91,0,0,0-31.08,5.4l-2.36,3.51,6.35,23.16H265.47l11.82-33.58ZM123.47,263.9l-.06,0,.4,0Z"/><path class="cls-5" d="M56.48,269.12S68,250,97.93,256.36"/><path class="cls-5" d="M35.11,265.61a34.91,34.91,0,0,1,31.08-5.4"/><path class="cls-5" d="M83.64,267.52s16.84-22.18,44.58-4.06"/><path class="cls-5" d="M107.58,278s5.58-14.65,25.08-14.38,25.08,16.48,25.08,16.48"/><path class="cls-5" d="M141.5,263.9s6.69-4.2,18.74-3.68c15.47.67,18.74,11.13,18.74,11.13"/><path class="cls-5" d="M173.31,261.93s6.24-5.57,13.89-5.57,10.21,3.86,10.21,3.86a17.47,17.47,0,0,1,12.11-3.86A19.16,19.16,0,0,1,221,261.93"/><path class="cls-5" d="M210.48,271.35s6.38-11.09,18.81-11.13S244,263.3,244,263.3"/><path class="cls-5" d="M237,260.71s11.25-13.35,33.71-8.5"/><path class="cls-24" d="M91.25,232.59a25,25,0,0,1-10.44-2.54c-8.52-3.93-11.82-15.85-10.67-25.6,1.22-10.34,6.71-17.46,14.68-19.06a39.42,39.42,0,0,1,7.53-.81,26.1,26.1,0,0,1,12.38,3.13c2.19,1,4.08,1.94,6.29,1.94a9.64,9.64,0,0,0,5.2-1.7c5.35-3.4,5.1-5.8,4.11-9.07a11.47,11.47,0,0,1,.31-8.71c1.63-4.13,4.7-6.14,9.39-6.14,6.16,0,12.67,3.55,12.74,3.59l2.81,1.55L145,166c-.13-.66-3-16,9.82-18.65a39.9,39.9,0,0,1,7.93-.86c9.68,0,16.28,4.25,23.78,11.12a73.47,73.47,0,0,1,6,6.06c2.49,2.81,3.44,3.69,8.73,5.33l1.05.32c9.75,3,27.9,8.54,27.85,25.81-.05,15.55-15.85,32.24-60,32.46-5.58-.07-21.09-1.1-25.58-5-3.75-3.26-12-6.71-19.91-6.71-5.07,0-9.22,1.46-12,4.23l-.86.87C106.3,226.44,100.18,232.59,91.25,232.59Z"/><path class="cls-25" d="M162.71,148c9.2,0,15.53,4.1,22.77,10.72a70,70,0,0,1,5.85,6c2.65,3,3.76,4,9.41,5.76l1.06.32c9.38,2.88,26.84,8.22,26.79,24.38,0,4.2-1.43,12.29-10.73,19.31-10.11,7.62-26.19,11.54-47.79,11.65-7.58-.09-20.94-1.43-24.61-4.62-4.06-3.52-12.54-7.08-20.9-7.08-5.48,0-10,1.61-13,4.67l-.87.87c-5.19,5.22-11.08,11.14-19.39,11.14a23.62,23.62,0,0,1-9.81-2.4c-7.87-3.64-10.9-14.86-9.81-24.06,1.14-9.66,6.18-16.31,13.48-17.77a38,38,0,0,1,7.24-.78,24.52,24.52,0,0,1,11.73,3c2.26,1.08,4.39,2.09,6.94,2.09a11,11,0,0,0,6-1.94c6.2-3.94,5.81-7.21,4.74-10.77a10,10,0,0,1,.27-7.72c1.39-3.54,3.93-5.19,8-5.19,5.74,0,11.95,3.37,12,3.4l5.61,3.09-1.22-6.29c-.11-.59-2.67-14.57,8.65-16.89a38.46,38.46,0,0,1,7.63-.83m0-3a41,41,0,0,0-8.23.89c-14.45,3-11,20.41-11,20.41s-6.84-3.78-13.46-3.78c-4.37,0-8.64,1.64-10.78,7.09-4.09,10.39,4.93,11.48-3.83,17.06a8,8,0,0,1-4.4,1.47c-4.66,0-8.36-5.07-18.67-5.07a40.5,40.5,0,0,0-7.83.84C64.1,188,63.59,223.75,80.18,231.41a26.34,26.34,0,0,0,11.07,2.68c10.07,0,16.8-7.31,22.38-12.89,2.73-2.73,6.7-3.79,10.93-3.79,7.24,0,15.21,3.12,18.93,6.34,5.89,5.11,26.57,5.36,26.57,5.36,50.29-.25,61.49-21.12,61.53-34,.06-19.07-20.6-24.68-30-27.58-7.9-2.44-5.19-2.89-14.13-11.06-7.21-6.59-14.25-11.51-24.79-11.51Z"/><g class="cls-26"><path class="cls-27" d="M174.6,235.55l-.29-1.07c-.14-.52-13.48-51.92,19.88-80.3l.95-.8,16.47,13.31-2.09,1c-.75.38-18.56,9.62-18.81,34.25-.26,24.9,7.7,31.66,7.78,31.72l3.48,2.83Z"/><path class="cls-25" d="M195.16,155.33l13.7,11.06s-19.39,9.66-19.65,35.58,8.34,32.9,8.34,32.9l-21.79-.78s-13.62-50.68,19.4-78.76m0-3.9L193.22,153c-14.15,12-22.15,30-23.14,52.07a107.24,107.24,0,0,0,2.78,29.76l.58,2.14,2.21.08,21.79.77,9.56.35-7.54-5.65c-.44-.43-7.49-7.51-7.25-30.56.24-23.66,17.27-32.56,18-32.93l4.14-2.1-3.6-2.91L197.05,153l-1.94-1.56Z"/><path class="cls-27" d="M143.79,239.38a1.49,1.49,0,0,1-1-.4l-13.65-12.77a1.5,1.5,0,0,1,.21-2.36s5.06-3.72,9.23-20.88c3.69-15.21,3.43-36.43,3.43-36.64a1.5,1.5,0,0,1,1.44-1.52h.06a1.5,1.5,0,0,1,1.5,1.39c0,.2,1.75,20.42,24.68,37.45a1.47,1.47,0,0,1,.59,1,1.49,1.49,0,0,1-.28,1.12l-25,33a1.52,1.52,0,0,1-1.07.58Z"/><path class="cls-25" d="M143.49,166.31s1.46,20.85,25.29,38.54l-25,33-13.65-12.77s5.44-3.52,9.87-21.78c3.78-15.58,3.48-37,3.48-37m0-3h-.13a3,3,0,0,0-2.87,3c0,.21.25,21.26-3.39,36.27-3.75,15.46-8.15,19.59-8.64,20a2.83,2.83,0,0,0-1.39,2.17,3,3,0,0,0,1,2.52l13.65,12.76a3,3,0,0,0,2,.81h.26a3,3,0,0,0,2.13-1.18l25-33a3,3,0,0,0-.6-4.22c-22.46-16.68-24.07-36.15-24.09-36.34a3,3,0,0,0-3-2.79Zm-15,59.29Z"/><path class="cls-27" d="M115.26,230.39c-22.69-24.26-7.27-47.1-7.12-47.32l.45-.65h9.85l-.67,2c-.07.23-7.43,22.69,8.53,35.11l1.36,1.06L116.3,231.51Z"/><path class="cls-25" d="M116.35,183.92s-8,23.53,9,36.77l-9,8.68c-22.12-23.66-7-45.45-7-45.45h7m0-3h-8.54l-.9,1.29a36.34,36.34,0,0,0-5.32,15.2c-1,8.3.35,20.94,12.57,34l2.08,2.22,2.19-2.11,9-8.68,2.49-2.4-2.73-2.13c-6.27-4.87-9.54-11.89-9.74-20.85a41.21,41.21,0,0,1,1.72-12.59l1.33-3.95Z"/></g><path class="cls-25" d="M162.71,148c9.2,0,15.53,4.1,22.77,10.72a70,70,0,0,1,5.85,6c2.65,3,3.76,4,9.41,5.76l1.06.32c9.38,2.88,26.84,8.22,26.79,24.38,0,4.2-1.43,12.29-10.73,19.31-10.11,7.62-26.19,11.54-47.79,11.65-7.58-.09-20.94-1.43-24.61-4.62-4.06-3.52-12.54-7.08-20.9-7.08-5.48,0-10,1.61-13,4.67l-.87.87c-5.19,5.22-11.08,11.14-19.39,11.14a23.62,23.62,0,0,1-9.81-2.4c-7.87-3.64-10.9-14.86-9.81-24.06,1.14-9.66,6.18-16.31,13.48-17.77a38,38,0,0,1,7.24-.78,24.52,24.52,0,0,1,11.73,3c2.26,1.08,4.39,2.09,6.94,2.09a11,11,0,0,0,6-1.94c6.2-3.94,5.81-7.21,4.74-10.77a10,10,0,0,1,.27-7.72c1.39-3.54,3.93-5.19,8-5.19,5.74,0,11.95,3.37,12,3.4l5.61,3.09-1.22-6.29c-.11-.59-2.67-14.57,8.65-16.89a38.46,38.46,0,0,1,7.63-.83m0-3a41,41,0,0,0-8.23.89c-14.45,3-11,20.41-11,20.41s-6.84-3.78-13.46-3.78c-4.37,0-8.64,1.64-10.78,7.09-4.09,10.39,4.93,11.48-3.83,17.06a8,8,0,0,1-4.4,1.47c-4.66,0-8.36-5.07-18.67-5.07a40.5,40.5,0,0,0-7.83.84C64.1,188,63.59,223.75,80.18,231.41a26.34,26.34,0,0,0,11.07,2.68c10.07,0,16.8-7.31,22.38-12.89,2.73-2.73,6.7-3.79,10.93-3.79,7.24,0,15.21,3.12,18.93,6.34,5.89,5.11,26.57,5.36,26.57,5.36,50.29-.25,61.49-21.12,61.53-34,.06-19.07-20.6-24.68-30-27.58-7.9-2.44-5.19-2.89-14.13-11.06-7.21-6.59-14.25-11.51-24.79-11.51Z"/><path class="cls-24" d="M161.25,234.6a10.41,10.41,0,0,1-3.45-.61c-5.25-1.84-7.62-5.72-7-11.53.88-8.62,8.11-17.89,11.81-18.39a16,16,0,0,1,2.2-.14c5.91,0,12.63,3.17,14.3,10.27.37,1.54-1.62,7.71-6,13.2-2.6,3.28-6.77,7.2-11.88,7.2Z"/><path class="cls-25" d="M164.79,205.23c5.4,0,11.52,2.87,13,9.24.21,1.46-2,7.92-6.51,13.09-2.27,2.61-5.85,5.73-10.05,5.73a9.2,9.2,0,0,1-3-.53c-4.67-1.64-6.68-5-6.15-10.17.85-8.27,7.86-16.84,10.68-17.22a15.16,15.16,0,0,1,2-.14m0-2.61a17.09,17.09,0,0,0-2.38.16c-7.37,1-22.25,26.4-5,32.45a11.74,11.74,0,0,0,3.88.67c11.61,0,20-18.09,19.12-22-1.82-7.67-8.93-11.28-15.58-11.28Z"/><path class="cls-28" d="M202.83,193c.25-5.35,1.7-9.63,5.55-9.45s6.77,4.66,6.52,10-3.57,9.55-7.42,9.37S202.58,198.36,202.83,193Z"/></g></svg>