<svg id="Layer_1" data-name="Layer 1" xmlns="http://www.w3.org/2000/svg" xmlns:xlink="http://www.w3.org/1999/xlink" viewBox="0 0 300 345"><defs><style>.cls-1{fill:url(#linear-gradient);}.cls-2{fill:#cf1f3d;}.cls-3{fill:#8c1834;}.cls-4{fill:#e7bf9a;}.cls-5{fill:#fbe2cd;}.cls-6{fill:#66182e;}.cls-7{fill:none;stroke:#2f2c38;stroke-linecap:round;stroke-miterlimit:10;stroke-width:5.07px;}.cls-8{fill:#2f2c38;}</style><linearGradient id="linear-gradient" x1="150" y1="347.35" x2="150" y2="140.5" gradientUnits="userSpaceOnUse"><stop offset="0" stop-color="#fbe2cd"/><stop offset="0.44" stop-color="#e7bf9a"/></linearGradient></defs><g id="underwater"><path class="cls-1" d="M263.62,345H36.38A36.38,36.38,0,0,1,0,308.62V226.39H300v82.23A36.38,36.38,0,0,1,263.62,345Z"/><path class="cls-2" d="M209.86,130.29v-.16s1.18-16.49-12.5-17.17c-11.06-.55-15.57,7.46-23.21,10.3A85.08,85.08,0,0,0,150,120.11a85.08,85.08,0,0,0-24.16,3.15c-7.64-2.84-12.15-10.85-23.21-10.3-13.68.68-12.5,17.17-12.5,17.17v.16C50.4,139.4,18.07,157.3,0,180v56.54H300V180C281.93,157.3,249.6,139.4,209.86,130.29Z"/><ellipse class="cls-3" cx="209.46" cy="141.9" rx="5.62" ry="7.96" transform="translate(22.16 311.99) rotate(-76.36)"/><ellipse class="cls-3" cx="225.12" cy="141.99" rx="4.2" ry="3.59" transform="translate(-29.08 63.1) rotate(-15)"/><ellipse class="cls-3" cx="241.2" cy="153.52" rx="4.2" ry="3.59" transform="matrix(0.97, -0.26, 0.26, 0.97, -31.51, 67.65)"/><circle class="cls-3" cx="219.33" cy="150.96" r="2.7"/><circle class="cls-3" cx="251.3" cy="155.41" r="1.72"/><circle class="cls-3" cx="228.2" cy="153.48" r="3.36"/><circle class="cls-3" cx="234.31" cy="146.52" r="2.7"/><ellipse class="cls-3" cx="90.54" cy="141.9" rx="7.96" ry="5.62" transform="translate(-30.91 25.35) rotate(-13.64)"/><ellipse class="cls-3" cx="74.88" cy="141.99" rx="3.59" ry="4.2" transform="translate(-81.65 177.57) rotate(-75)"/><ellipse class="cls-3" cx="58.8" cy="153.52" rx="3.59" ry="4.2" transform="translate(-104.7 170.58) rotate(-75)"/><circle class="cls-3" cx="80.67" cy="150.96" r="2.7"/><circle class="cls-3" cx="48.7" cy="155.41" r="1.72"/><circle class="cls-3" cx="71.8" cy="153.48" r="3.36"/><circle class="cls-3" cx="65.69" cy="146.52" r="2.7"/><path class="cls-4" d="M150,190.57c-62.61,0-117.75,17.62-150,44.35v18.44a36.38,36.38,0,0,0,36.38,36.38H263.62A36.38,36.38,0,0,0,300,253.36V234.92C267.75,208.19,212.62,190.57,150,190.57Z"/><path class="cls-5" d="M0,242.36v11a36.38,36.38,0,0,0,36.38,36.38H263.62A36.38,36.38,0,0,0,300,253.36v-11C267.75,215.63,212.62,198,150,198S32.25,215.63,0,242.36Z"/><ellipse class="cls-4" cx="31.45" cy="261.12" rx="18.82" ry="21.31" transform="translate(-176.43 100.01) rotate(-45.36)"/><path class="cls-3" d="M1.13,281.85a4.77,4.77,0,0,0-1.13.29v26.48a36.51,36.51,0,0,0,1.2,9.29c1.06,2.46,2.2,4.84,3.39,7a74.81,74.81,0,0,0,6.2,9.56,36.44,36.44,0,0,0,11.79,7.81c1.36-5.94-8.33-45.95-11.49-49.3C7.72,289.42,1.13,281.85,1.13,281.85Z"/><path class="cls-6" d="M0,282.14v22.19c4.4,2.49,8.78,1.73,14.61-2.42-1.41-4.65-2.69-8.05-3.52-8.93-3.37-3.56-10-11.13-10-11.13A4.77,4.77,0,0,0,0,282.14Z"/><path class="cls-2" d="M8,259.06a80.46,80.46,0,0,0-8,12.85v19.9c.21.24.42.48.64.71,6.59,6.74,13.81,3.62,29.92-9,8.19-6.45,20.89-18.06,10.24-30.18S14.94,249.65,8,259.06Z"/><ellipse class="cls-4" cx="64.24" cy="275.32" rx="15.7" ry="17.78" transform="translate(-176.79 127.56) rotate(-45.36)"/><path class="cls-3" d="M38.93,292.62s-5.2.44-5.82,8.82c-.29,4,3.62,17.87,8.71,27.11,5.62,10.21,12.18,16.3,14.69,15.09s-6.46-38.76-9.26-41.73S38.93,292.62,38.93,292.62Z"/><path class="cls-6" d="M50.18,309.36c-1.17-3.88-2.24-6.72-2.93-7.45-2.81-3-8.32-9.3-8.32-9.3s-5.2.45-5.82,8.83a26.08,26.08,0,0,0,.94,6.51,11.94,11.94,0,0,0,2.32,2.34C40.61,313.58,44.6,313.33,50.18,309.36Z"/><path class="cls-2" d="M63.5,294c-13.44,10.57-19.48,13.17-25,7.55s-3.85-14.43,6.13-27.92c5.8-7.85,18.49-14.92,27.38-4.81S70.33,288.59,63.5,294Z"/><ellipse class="cls-4" cx="95.12" cy="280.59" rx="14.34" ry="16.24" transform="translate(-195.69 223.98) rotate(-60.26)"/><path class="cls-3" d="M76.85,301.79s-4.48,1.62-3.06,9.16c.67,3.58,7.39,14.92,14,21.88,7.36,7.69,14.57,11.52,16.5,9.86S89.55,310,86.37,308,76.85,301.79,76.85,301.79Z"/><path class="cls-6" d="M90.71,313.92c-1.95-3.14-3.56-5.4-4.34-5.88-3.18-2-9.52-6.25-9.52-6.25s-4.48,1.62-3.06,9.16a23.47,23.47,0,0,0,2.36,5.52A10.89,10.89,0,0,0,78.74,318C83.26,319.9,86.72,318.74,90.71,313.92Z"/><path class="cls-2" d="M98.85,297.22c-9.38,12.49-14.09,16.2-20.26,12.52s-6.78-11.82-1.15-26.07c3.28-8.29,12.81-17.51,23-10.68S103.61,290.87,98.85,297.22Z"/><ellipse class="cls-4" cx="268.55" cy="261.12" rx="21.31" ry="18.82" transform="translate(-106.01 264.04) rotate(-44.64)"/><path class="cls-3" d="M300,282.14a4.77,4.77,0,0,0-1.13-.29s-6.59,7.57-10,11.13c-3.16,3.35-12.85,43.36-11.49,49.3a36.44,36.44,0,0,0,11.79-7.81,74.81,74.81,0,0,0,6.2-9.56c1.19-2.16,2.33-4.54,3.39-7a36.51,36.51,0,0,0,1.2-9.29Z"/><path class="cls-6" d="M300,304.33V282.14a4.77,4.77,0,0,0-1.13-.29s-6.59,7.57-10,11.13c-.83.88-2.11,4.28-3.52,8.93C291.22,306.06,295.6,306.82,300,304.33Z"/><path class="cls-2" d="M300,271.91a80.46,80.46,0,0,0-8-12.85c-6.95-9.41-22.15-17.88-32.81-5.77s2.05,23.73,10.24,30.18c16.11,12.67,23.33,15.79,29.92,9,.22-.23.43-.47.64-.71Z"/><ellipse class="cls-4" cx="235.76" cy="275.32" rx="17.78" ry="15.7" transform="translate(-125.45 245.1) rotate(-44.64)"/><path class="cls-3" d="M261.07,292.62s5.2.44,5.82,8.82c.29,4-3.62,17.87-8.71,27.11-5.62,10.21-12.18,16.3-14.69,15.09s6.46-38.76,9.26-41.73S261.07,292.62,261.07,292.62Z"/><path class="cls-6" d="M249.82,309.36c1.17-3.88,2.24-6.72,2.93-7.45,2.81-3,8.32-9.3,8.32-9.3s5.2.45,5.82,8.83A26.08,26.08,0,0,1,266,308a11.94,11.94,0,0,1-2.32,2.34C259.39,313.58,255.4,313.33,249.82,309.36Z"/><path class="cls-2" d="M236.5,294c13.44,10.57,19.48,13.17,25,7.55s3.85-14.43-6.13-27.92c-5.8-7.85-18.49-14.92-27.38-4.81S229.67,288.59,236.5,294Z"/><ellipse class="cls-4" cx="204.88" cy="280.59" rx="16.24" ry="14.34" transform="translate(-112.21 138.61) rotate(-29.74)"/><path class="cls-3" d="M223.15,301.79s4.48,1.62,3.06,9.16c-.67,3.58-7.39,14.92-14.05,21.88-7.36,7.69-14.57,11.52-16.5,9.86s14.79-32.69,18-34.65S223.15,301.79,223.15,301.79Z"/><path class="cls-6" d="M209.29,313.92c2-3.14,3.56-5.4,4.34-5.88,3.18-2,9.52-6.25,9.52-6.25s4.48,1.62,3.06,9.16a23.47,23.47,0,0,1-2.36,5.52,10.89,10.89,0,0,1-2.59,1.52C216.74,319.9,213.28,318.74,209.29,313.92Z"/><path class="cls-2" d="M201.15,297.22c9.38,12.49,14.09,16.2,20.26,12.52s6.78-11.82,1.15-26.07c-3.28-8.29-12.81-17.51-23-10.68S196.39,290.87,201.15,297.22Z"/><path class="cls-7" d="M163.36,146.52s0,8.89-13.36,8.89-13.36-8.89-13.36-8.89"/><ellipse class="cls-8" cx="103.56" cy="128.92" rx="5.24" ry="6.8" transform="translate(-34.82 38.39) rotate(-18.03)"/><ellipse class="cls-8" cx="196.44" cy="128.92" rx="6.8" ry="5.24" transform="translate(13.04 275.8) rotate(-71.97)"/><ellipse class="cls-6" cx="34.16" cy="193.15" rx="17.49" ry="15.2" transform="translate(-74.28 29.71) rotate(-23.53)"/><path class="cls-3" d="M0,111.88V158c6.5,21.06,19.7,51.07,36.81,45.63,25.09-8-5.46-70.51-5.46-70.51Z"/><path class="cls-6" d="M36.81,146.25c-3-7.8-5.46-13.14-5.46-13.14L0,111.88v33.35a18,18,0,0,0,3,2.51C10.76,153.07,26.54,154.44,36.81,146.25Z"/><path class="cls-3" d="M57.14,57.85C55.37,65.68,66.76,80,66.76,80S78.52,68.07,102,68.41s33,7.15,39.15,2c4.57-3.81-6.75-17.86-23.09-25.45H70.86C62.91,48.7,58.06,53.77,57.14,57.85Z"/><path class="cls-6" d="M141.43,65.07a2.4,2.4,0,0,1-.28.27c-6.12,5.11-15.66-1.7-39.15-2a61.41,61.41,0,0,0-15.1,1.6A3.93,3.93,0,0,1,82,61.31v-.05c-.2-5.49,6.27-11.95,11.52-16.26H70.86c-8,3.7-12.8,8.77-13.72,12.85C55.37,65.68,66.76,80,66.76,80l.06-.06,0,0c.1-.1.29-.28.58-.53l0,0c2-1.72,8.18-6.5,18.62-9.14h0A60.77,60.77,0,0,1,102,68.41c23.49.34,33,7.15,39.15,2C142.46,69.36,142.46,67.44,141.43,65.07Z"/><path class="cls-2" d="M85.26,45H36.38A36.38,36.38,0,0,0,0,81.38v36.39s-.07,15.09,9.75,21.79c7.49,5.1,23,6.27,32.34-2.39,9.59-8.85,9.63-20.67,23.24-23.73s24.68-1,36.6-8.41c9.61-6,25.39-9.08,23.56-15.86-2.38-8.85-13.94-6.94-29.27-11.57-16.64-5-22.13-7.15-22.47-16.34C73.55,55.77,80,49.31,85.26,45Z"/><ellipse class="cls-3" cx="77.47" cy="94.82" rx="5.62" ry="7.96" transform="translate(-32.94 147.75) rotate(-76.36)"/><ellipse class="cls-3" cx="90.14" cy="86.38" rx="4.2" ry="3.59" transform="translate(-19.28 26.27) rotate(-15)"/><ellipse class="cls-3" cx="65.95" cy="104.59" rx="4.2" ry="3.59" transform="translate(-24.82 20.63) rotate(-15)"/><circle class="cls-3" cx="92.84" cy="95.47" r="2.7"/><circle class="cls-3" cx="56.41" cy="102.78" r="1.72"/><circle class="cls-3" cx="61.49" cy="95.47" r="3.36"/><circle class="cls-3" cx="100.87" cy="89.14" r="2.7"/><ellipse class="cls-6" cx="265.84" cy="193.15" rx="15.2" ry="17.49" transform="translate(-17.39 359.75) rotate(-66.47)"/><path class="cls-3" d="M300,111.88V158c-6.5,21.06-19.7,51.07-36.81,45.63-25.09-8,5.46-70.51,5.46-70.51Z"/><path class="cls-6" d="M263.19,146.25c3-7.8,5.46-13.14,5.46-13.14L300,111.88v33.35a18,18,0,0,1-3,2.51C289.24,153.07,273.46,154.44,263.19,146.25Z"/><path class="cls-3" d="M242.86,57.85c1.77,7.83-9.62,22.13-9.62,22.13S221.48,68.07,198,68.41s-33,7.15-39.15,2c-4.57-3.81,6.75-17.86,23.09-25.45h47.2C237.09,48.7,241.94,53.77,242.86,57.85Z"/><path class="cls-6" d="M158.57,65.07a2.4,2.4,0,0,0,.28.27c6.12,5.11,15.66-1.7,39.15-2a61.41,61.41,0,0,1,15.1,1.6A3.93,3.93,0,0,0,218,61.31v-.05c.2-5.49-6.27-11.95-11.52-16.26h22.68c8,3.7,12.8,8.77,13.72,12.85,1.77,7.83-9.62,22.13-9.62,22.13l-.06-.06,0,0c-.1-.1-.29-.28-.58-.53l0,0c-2-1.72-8.18-6.5-18.62-9.14h0A60.77,60.77,0,0,0,198,68.41c-23.49.34-33,7.15-39.15,2C157.54,69.36,157.54,67.44,158.57,65.07Z"/><path class="cls-2" d="M214.74,45h48.88A36.38,36.38,0,0,1,300,81.38v36.39s.07,15.09-9.75,21.79c-7.49,5.1-23,6.27-32.34-2.39-9.59-8.85-9.63-20.67-23.24-23.73s-24.68-1-36.6-8.41c-9.61-6-25.39-9.08-23.56-15.86,2.38-8.85,13.94-6.94,29.27-11.57,16.64-5,22.13-7.15,22.47-16.34C226.45,55.77,220,49.31,214.74,45Z"/><ellipse class="cls-3" cx="222.53" cy="94.82" rx="7.96" ry="5.62" transform="translate(-16.08 55.15) rotate(-13.64)"/><ellipse class="cls-3" cx="209.86" cy="86.38" rx="3.59" ry="4.2" transform="translate(72.11 266.73) rotate(-75)"/><ellipse class="cls-3" cx="234.05" cy="104.59" rx="3.59" ry="4.2" transform="translate(72.45 303.6) rotate(-75)"/><circle class="cls-3" cx="207.16" cy="95.47" r="2.7"/><circle class="cls-3" cx="243.59" cy="102.78" r="1.72"/><circle class="cls-3" cx="238.51" cy="95.47" r="3.36"/><circle class="cls-3" cx="199.13" cy="89.14" r="2.7"/></g></svg>