<svg id="Layer_1" data-name="Layer 1" xmlns="http://www.w3.org/2000/svg" xmlns:xlink="http://www.w3.org/1999/xlink" viewBox="0 0 300 345"><defs><style>.cls-1{fill:url(#linear-gradient);}.cls-2{fill:#994d9e;}.cls-3{fill:#742a87;}.cls-4{fill:#c080b7;}.cls-5{fill:#ac6aac;}.cls-6,.cls-9{fill:#d69bc5;}.cls-7{fill:#cc90c0;}.cls-8{fill:#f5e1ee;}.cls-9{opacity:0.8;}.cls-10{fill:none;stroke:#742a87;stroke-linecap:round;stroke-miterlimit:10;stroke-width:3.97px;}</style><linearGradient id="linear-gradient" x1="150" y1="356.11" x2="150" y2="161.16" gradientUnits="userSpaceOnUse"><stop offset="0" stop-color="#994d9e"/><stop offset="0.69" stop-color="#503663"/></linearGradient></defs><g id="underwater"><path class="cls-1" d="M263.62,345H36.38A36.38,36.38,0,0,1,0,308.62V259.14H300v49.48A36.38,36.38,0,0,1,263.62,345Z"/><rect class="cls-2" y="45" width="300" height="253.39" rx="36.38"/><path class="cls-3" d="M32.23,298.15c-1.77,3.24-3.69,6.81-3,12.94,1,8.84,8.17,13.92,3.43,22a31.72,31.72,0,0,0-3.87,11.12,36.53,36.53,0,0,0,7.59.8H62.61c2.46-4.23,3.85-10.42,2.81-20.7-2-19.5,6.89-24.75,6.89-24.75l-.4-1.16H36.38A35.7,35.7,0,0,1,32.23,298.15Z"/><path class="cls-2" d="M22.83,253c-4.9,14.62,6.12,22.5,10.1,30.69,3.43,7.05,1.48,10.51-.7,14.48a35.7,35.7,0,0,0,4.15.24H71.91l-21.4-61.81S30.45,230.23,22.83,253Z"/><path class="cls-4" d="M55.86,238.14a64.51,64.51,0,0,0-7.07,12,46.7,46.7,0,0,0-3.92,13.08,30.56,30.56,0,0,0,1,13.26c.69,2.06,1.62,4.25,2.52,6.36s1.88,4.21,2.91,6.29l1.52,3.17A13.34,13.34,0,0,1,54.13,296a4.6,4.6,0,0,1,.06,1.12,4.07,4.07,0,0,1-.14,1.11l-.11.54-.18.48c-.12.31-.22.65-.36.93a34.63,34.63,0,0,1-1.73,3.21l-1.8,3a13.36,13.36,0,0,0-1.35,2.9,13.19,13.19,0,0,0-.66,3.14,19,19,0,0,0-.07,3.29c.26,4.48,1.67,9,2,13.79a16.18,16.18,0,0,1-.94,7.13,13.23,13.23,0,0,1-4.36,5.53,13.56,13.56,0,0,0,3.57-5.8,15.44,15.44,0,0,0,.26-6.7c-.66-4.51-2.38-8.9-2.89-13.75a18.19,18.19,0,0,1,.55-7.42A16.82,16.82,0,0,1,47.5,305L49.2,302c.56-1,1.11-2,1.55-3a4.61,4.61,0,0,0,.48-2.6,10.55,10.55,0,0,0-1.06-2.86l-1.53-3.12c-1-2.12-2-4.28-2.9-6.45-.48-1.08-.89-2.19-1.33-3.28s-.86-2.24-1.21-3.41a31.39,31.39,0,0,1-.63-14.44,44.16,44.16,0,0,1,4.91-13.38A52.44,52.44,0,0,1,55.86,238.14Z"/><path class="cls-3" d="M0,262v46.61a36.32,36.32,0,0,0,3.17,14.86,35.34,35.34,0,0,1,6.89-12.55c4.32-4.95,11.15-6.77,14.71-14.44A36.39,36.39,0,0,1,0,262Z"/><path class="cls-2" d="M14.32,235.05A26.21,26.21,0,0,1,0,225.23V262a36.39,36.39,0,0,0,24.77,34.48c1.94-4.17,2.91-10.05,2-19.11-2-19.5,6.89-24.75,6.89-24.75L27.88,236A30.63,30.63,0,0,1,14.32,235.05Z"/><path class="cls-3" d="M0,189.53v35.7a26.21,26.21,0,0,0,14.32,9.82,30.63,30.63,0,0,0,13.56.91l-16-46.3A23.8,23.8,0,0,0,0,189.53Z"/><path class="cls-4" d="M17.19,191.21a65.48,65.48,0,0,0-7.07,12,46.51,46.51,0,0,0-3.91,13.07,30.4,30.4,0,0,0,1,13.26c.69,2.07,1.62,4.25,2.52,6.36s1.88,4.22,2.91,6.29l1.52,3.18a13.72,13.72,0,0,1,1.27,3.7,4.68,4.68,0,0,1,.06,1.13,4.5,4.5,0,0,1-.14,1.11l-.12.54-.17.47c-.12.31-.22.66-.36.93A36,36,0,0,1,13,256.44l-1.8,3a13.89,13.89,0,0,0-1.36,2.9,13.71,13.71,0,0,0-.65,3.13,18.14,18.14,0,0,0-.07,3.3c.25,4.47,1.67,9,2,13.79a16.2,16.2,0,0,1-.94,7.13,13.17,13.17,0,0,1-4.37,5.53,13.62,13.62,0,0,0,3.58-5.81,15.44,15.44,0,0,0,.26-6.7C9,278.22,7.3,273.83,6.79,269a18.15,18.15,0,0,1,.56-7.41,16.08,16.08,0,0,1,1.49-3.48l1.7-3c.56-1,1.11-2,1.54-3a4.65,4.65,0,0,0,.49-2.6,11.08,11.08,0,0,0-1.06-2.87L10,243.47q-1.53-3.18-2.9-6.45c-.48-1.08-.89-2.18-1.33-3.27a34.2,34.2,0,0,1-1.21-3.41,31.43,31.43,0,0,1-.63-14.45,43.58,43.58,0,0,1,4.91-13.37A52.71,52.71,0,0,1,17.19,191.21Z"/><path class="cls-5" d="M14.56,291.13a10.69,10.69,0,0,1-3.29,9.11c-5.3,5.22-8.16,12.15-9.58,19.35A36.43,36.43,0,0,0,12.38,336a34.05,34.05,0,0,1,8-7.63c8.42-5.64,20.68-2.55,24.81-28.08.1-.64.21-1.25.33-1.85H36.38A36.23,36.23,0,0,1,14.56,291.13Z"/><path class="cls-4" d="M49.8,231c-2.95-2.68-7.56-2.45-10-2.1-2.59,3.32-8.77,8.76-20.64,7.12,1.07,6.08,4.17,11.54,5.13,16.53,2.7,13.95-8.62,11.93-10.66,25.53-.73,4.85.65,9.09.91,13a36.23,36.23,0,0,0,21.82,7.26h9.13c3.44-17.68,12.74-20.28,12.74-20.28l-2.92-40.64-1.25-1.56A42,42,0,0,0,49.8,231Z"/><path class="cls-5" d="M22.5,220.32a20.52,20.52,0,0,0-3.32,15.73c11.87,1.64,18-3.8,20.64-7.12,2.42-.35,7-.58,10,2.1a42,42,0,0,1,4.28,4.88l1.25,1.56-1.85-25.83S35.75,200.32,22.5,220.32Z"/><path class="cls-6" d="M58.25,214.53a64.78,64.78,0,0,0-9.93,9.72,46.83,46.83,0,0,0-7.16,11.62A30.55,30.55,0,0,0,38.72,249c.14,2.17.47,4.53.79,6.8s.73,4.55,1.19,6.82l.64,3.46a13.15,13.15,0,0,1,.27,3.91,4.48,4.48,0,0,1-.23,1.11,4.94,4.94,0,0,1-.42,1l-.25.49-.3.42a8.27,8.27,0,0,1-.59.8,33.81,33.81,0,0,1-2.5,2.66l-2.52,2.44a14,14,0,0,0-2,2.45,13.25,13.25,0,0,0-1.45,2.86,17.54,17.54,0,0,0-.92,3.17c-.91,4.38-.72,9.12-1.61,13.84A16.13,16.13,0,0,1,26,307.85a13.17,13.17,0,0,1-5.65,4.22,13.69,13.69,0,0,0,5-4.68,15.45,15.45,0,0,0,2-6.41c.53-4.52,0-9.21.76-14a18.22,18.22,0,0,1,2.46-7,16.65,16.65,0,0,1,2.34-3l2.43-2.51c.8-.83,1.59-1.65,2.26-2.47a4.58,4.58,0,0,0,1.14-2.39,10.63,10.63,0,0,0-.28-3l-.67-3.41q-.66-3.47-1.13-7c-.18-1.17-.3-2.34-.44-3.51s-.25-2.38-.29-3.61A31.51,31.51,0,0,1,39,234.93a44,44,0,0,1,8.21-11.65A52.4,52.4,0,0,1,58.25,214.53Z"/><path class="cls-7" d="M59.49,302.59c-1.7,9.22-11.91,20.46.35,29.31C70.21,339.39,71.69,340,75.15,345H92.21c0-11.74-1.22-16.21,3.37-19.57,5.1-3.75,11.57-9.4,7.49-19.68a28.33,28.33,0,0,0-4.4-7.36H59.78A14.55,14.55,0,0,1,59.49,302.59Z"/><path class="cls-6" d="M54.08,235.91A42,42,0,0,0,49.8,231c-2.95-2.68-7.56-2.45-10-2.1a18.79,18.79,0,0,1-4.54,4.14,20.46,20.46,0,0,0,.12,7.09c3,15.82,11.84,11.09,11.5,24.35s-6.31,17.05,1.61,24c6.4,5.62,10.74,5.32,11.27,9.87H98.67c-3.78-4.69-7.49-7.35-5.82-12.69,2.39-7.59.41-15.73-2.69-21.19s-15.86-5.12-12.88-15.34c.15-.51.28-1.06.4-1.62a22.18,22.18,0,0,1-2.24.26C64.1,248.52,58.31,241.24,54.08,235.91Z"/><path class="cls-7" d="M77.28,218.81l-28.77-4.28s-11.38,6.93-13.23,18.54a18.79,18.79,0,0,0,4.54-4.14c2.42-.35,7-.58,10,2.1a42,42,0,0,1,4.28,4.88c4.23,5.33,10,12.61,21.36,11.9a22.18,22.18,0,0,0,2.24-.26C80,237,77.28,218.81,77.28,218.81Z"/><path class="cls-4" d="M64.26,215.81a83.16,83.16,0,0,0-6.59,12.83,33.51,33.51,0,0,0-2,6.77,10.84,10.84,0,0,0,.57,6.46,17,17,0,0,0,4.17,5.31A19.52,19.52,0,0,1,63,250a13.1,13.1,0,0,1,1.83,3.59,26,26,0,0,1,1.07,7.58c0,1.25,0,2.49-.08,3.72l-.09,1.85-.07,1.73a13.54,13.54,0,0,0,.24,3.23,6.17,6.17,0,0,0,1.29,2.58c.68.76,1.61,1.55,2.52,2.43a17.73,17.73,0,0,1,2.52,3,26.33,26.33,0,0,1,3.13,7A40.45,40.45,0,0,1,76.83,294a30.69,30.69,0,0,1-.09,7.48c-.31,2.47-.91,4.85-1.41,7.19a18.81,18.81,0,0,0-.44,7,22,22,0,0,0,2.39,6.73,20,20,0,0,1-3.2-6.57,19.27,19.27,0,0,1-.2-7.41c.76-4.83,1.43-9.49.62-14.13s-2-9.33-4.58-13a16.7,16.7,0,0,0-2.19-2.51c-.83-.8-1.77-1.56-2.72-2.59a9.31,9.31,0,0,1-2-3.82,16.64,16.64,0,0,1-.35-4l.09-1.9.12-1.77c.1-1.19.09-2.36.1-3.53a24.4,24.4,0,0,0-.83-6.75,12.1,12.1,0,0,0-3.59-5.44,24.09,24.09,0,0,1-2.53-2.83,16.1,16.1,0,0,1-1.93-3.4,10.11,10.11,0,0,1-.8-3.95,16.66,16.66,0,0,1,.44-3.83,34.74,34.74,0,0,1,2.56-7A65.33,65.33,0,0,1,64.26,215.81Z"/><path class="cls-5" d="M98.09,322.43c8.82,11.7,1,10.92,5.94,22.57h30.14c-.28-3.74-1.09-6.85-2.71-8.68-8.17-9.19-10.9-16.34-6.13-27.23a101.77,101.77,0,0,0,3.91-10.7H97.84C94.58,305.68,91.07,313.12,98.09,322.43Z"/><path class="cls-4" d="M90,241.27a32.76,32.76,0,0,1-7.83,5c.39.6.8,1.19,1.27,1.78,9.53,12,14,12.78,10.55,21.08s9.19,12.9,6.47,22.52a49.82,49.82,0,0,1-2.64,6.75h31.4c3.3-10.8,5.41-23.89,1.19-30.83-2.27-3.75-2.28-10.19-1.48-16.77-12-5.68-17.36-14.9-22.94-15.56C97.91,234.26,94.15,238,90,241.27Z"/><path class="cls-5" d="M133.15,228.75C132.82,226.36,95,204.27,95,204.27l-15,16s-5.54,14.2,2.14,25.94a32.76,32.76,0,0,0,7.83-5c4.13-3.24,7.89-7,16-6,5.58.66,10.94,9.88,22.94,15.56C130.18,240.66,133.35,230.19,133.15,228.75Z"/><path class="cls-6" d="M97.07,211.64A99.55,99.55,0,0,0,96.91,226a51.22,51.22,0,0,0,2.53,13.85,23.05,23.05,0,0,0,3.12,6c.31.46.7.85,1,1.29l1.22,1.31,2.45,2.62c1.65,1.75,3.29,3.55,4.84,5.49a23.9,23.9,0,0,1,3.9,6.56,19,19,0,0,1,1,7.67,37.73,37.73,0,0,1-1.24,7.36c-1.23,4.72-2.72,9.28-4,13.86a58.83,58.83,0,0,0-2.48,13.91,26.68,26.68,0,0,0,3.09,13.7A25,25,0,0,1,107.83,306a54,54,0,0,1,1.68-14.51c1-4.73,2.5-9.33,3.53-13.95s1.71-9.23.16-13.33-4.86-7.59-8-11.17l-2.39-2.7-1.19-1.36c-.39-.52-.83-1-1.18-1.54a23.86,23.86,0,0,1-3.21-6.84A48.36,48.36,0,0,1,95.44,226,74.46,74.46,0,0,1,97.07,211.64Z"/><path class="cls-3" d="M228.09,298.39l-.4,1.16s8.88,5.25,6.89,24.75c-1,10.28.35,16.47,2.81,20.7h26.23a36.53,36.53,0,0,0,7.59-.8,31.72,31.72,0,0,0-3.87-11.12c-4.74-8.07,2.43-13.15,3.43-22,.69-6.13-1.23-9.7-3-12.94a35.7,35.7,0,0,1-4.15.24Z"/><path class="cls-2" d="M267.07,283.67c4-8.19,15-16.07,10.1-30.69-7.62-22.75-27.68-16.4-27.68-16.4l-21.4,61.81h35.53a35.7,35.7,0,0,0,4.15-.24C265.59,294.18,263.64,290.72,267.07,283.67Z"/><path class="cls-4" d="M244.14,238.14a52.44,52.44,0,0,1,8.38,11.3,44.16,44.16,0,0,1,4.91,13.38,31.39,31.39,0,0,1-.63,14.44c-.35,1.17-.77,2.34-1.21,3.41s-.85,2.2-1.33,3.28c-.91,2.17-1.88,4.33-2.9,6.45l-1.53,3.12a10.55,10.55,0,0,0-1.06,2.86,4.61,4.61,0,0,0,.48,2.6c.44,1,1,2,1.55,3l1.7,3.05a16.82,16.82,0,0,1,1.49,3.48,18.19,18.19,0,0,1,.55,7.42c-.51,4.85-2.23,9.24-2.89,13.75a15.44,15.44,0,0,0,.26,6.7,13.56,13.56,0,0,0,3.57,5.8,13.23,13.23,0,0,1-4.36-5.53,16.18,16.18,0,0,1-.94-7.13c.36-4.78,1.77-9.31,2-13.79a19,19,0,0,0-.07-3.29,13.19,13.19,0,0,0-.66-3.14,13.36,13.36,0,0,0-1.35-2.9l-1.8-3a34.63,34.63,0,0,1-1.73-3.21c-.14-.28-.24-.62-.36-.93l-.18-.48-.11-.54a4.07,4.07,0,0,1-.14-1.11,4.6,4.6,0,0,1,.06-1.12,13.34,13.34,0,0,1,1.27-3.71l1.52-3.17c1-2.08,2-4.17,2.91-6.29s1.83-4.3,2.52-6.36a30.56,30.56,0,0,0,1-13.26,46.7,46.7,0,0,0-3.92-13.08A64.51,64.51,0,0,0,244.14,238.14Z"/><path class="cls-3" d="M275.23,296.49c3.56,7.67,10.39,9.49,14.71,14.44a35.34,35.34,0,0,1,6.89,12.55A36.32,36.32,0,0,0,300,308.62V262A36.39,36.39,0,0,1,275.23,296.49Z"/><path class="cls-2" d="M285.68,235.05a30.5,30.5,0,0,1-13.56.92l-5.77,16.66s8.88,5.25,6.89,24.75c-.92,9.06.06,14.94,2,19.11A36.39,36.39,0,0,0,300,262V225.23A26.21,26.21,0,0,1,285.68,235.05Z"/><path class="cls-3" d="M288.16,189.66l-16,46.31a30.5,30.5,0,0,0,13.56-.92A26.21,26.21,0,0,0,300,225.23v-35.7A23.8,23.8,0,0,0,288.16,189.66Z"/><path class="cls-4" d="M282.81,191.21a52.71,52.71,0,0,1,8.37,11.31,43.58,43.58,0,0,1,4.91,13.37,31.43,31.43,0,0,1-.63,14.45,34.2,34.2,0,0,1-1.21,3.41c-.44,1.09-.85,2.19-1.33,3.27q-1.37,3.27-2.9,6.45l-1.53,3.12a11.08,11.08,0,0,0-1.06,2.87,4.65,4.65,0,0,0,.49,2.6c.43,1,1,2,1.54,3l1.7,3a16.08,16.08,0,0,1,1.49,3.48,18.15,18.15,0,0,1,.56,7.41c-.51,4.86-2.24,9.25-2.9,13.75a15.44,15.44,0,0,0,.26,6.7,13.62,13.62,0,0,0,3.58,5.81,13.17,13.17,0,0,1-4.37-5.53,16.2,16.2,0,0,1-.94-7.13c.36-4.79,1.78-9.32,2-13.79a18.14,18.14,0,0,0-.07-3.3,13.71,13.71,0,0,0-.65-3.13,13.89,13.89,0,0,0-1.36-2.9l-1.8-3a36,36,0,0,1-1.73-3.22c-.14-.27-.24-.62-.36-.93l-.17-.47-.12-.54a4.5,4.5,0,0,1-.14-1.11,4.68,4.68,0,0,1,.06-1.13,13.72,13.72,0,0,1,1.27-3.7l1.52-3.18q1.55-3.1,2.91-6.29c.9-2.11,1.83-4.29,2.52-6.36a30.4,30.4,0,0,0,1-13.26,46.51,46.51,0,0,0-3.91-13.07A65.48,65.48,0,0,0,282.81,191.21Z"/><path class="cls-5" d="M263.62,298.39h-9.13c.12.6.23,1.21.33,1.85,4.13,25.53,16.39,22.44,24.81,28.08a34.05,34.05,0,0,1,8,7.63,36.43,36.43,0,0,0,10.69-16.36c-1.42-7.2-4.28-14.13-9.58-19.35a10.69,10.69,0,0,1-3.29-9.11A36.23,36.23,0,0,1,263.62,298.39Z"/><path class="cls-4" d="M260.17,228.92c-2.41-.36-7-.6-10,2.11a42,42,0,0,0-4.28,4.88l-1.25,1.56-2.92,40.64s9.3,2.6,12.74,20.28h9.13a36.23,36.23,0,0,0,21.82-7.26c.26-3.93,1.64-8.17.91-13-2-13.6-13.36-11.58-10.66-25.53,1-5,4.06-10.45,5.13-16.53C268.94,237.7,262.76,232.24,260.17,228.92Z"/><path class="cls-5" d="M277.5,220.32c-13.25-20-31-8.68-31-8.68l-1.85,25.83,1.25-1.56A42,42,0,0,1,250.2,231c3-2.71,7.56-2.47,10-2.11,2.59,3.32,8.77,8.78,20.65,7.13A20.53,20.53,0,0,0,277.5,220.32Z"/><path class="cls-6" d="M241.75,214.53a52.4,52.4,0,0,1,11,8.75A44,44,0,0,1,261,234.93,31.51,31.51,0,0,1,264.11,249c0,1.23-.14,2.47-.29,3.61s-.26,2.34-.44,3.51q-.47,3.51-1.13,7l-.67,3.41a10.63,10.63,0,0,0-.28,3,4.58,4.58,0,0,0,1.14,2.39c.67.82,1.46,1.64,2.26,2.47l2.43,2.51a16.65,16.65,0,0,1,2.34,3,18.22,18.22,0,0,1,2.46,7c.76,4.82.23,9.51.76,14a15.45,15.45,0,0,0,2,6.41,13.69,13.69,0,0,0,5,4.68,13.17,13.17,0,0,1-5.65-4.22,16.13,16.13,0,0,1-2.75-6.64c-.89-4.72-.7-9.46-1.61-13.84a17.54,17.54,0,0,0-.92-3.17,13.25,13.25,0,0,0-1.45-2.86,14,14,0,0,0-2.05-2.45l-2.52-2.44a33.81,33.81,0,0,1-2.5-2.66,8.27,8.27,0,0,1-.59-.8l-.3-.42-.25-.49a4.94,4.94,0,0,1-.42-1,4.48,4.48,0,0,1-.23-1.11,13.15,13.15,0,0,1,.27-3.91l.64-3.46c.46-2.27.85-4.54,1.19-6.82s.65-4.63.79-6.8a30.55,30.55,0,0,0-2.44-13.08,46.83,46.83,0,0,0-7.16-11.62A64.78,64.78,0,0,0,241.75,214.53Z"/><path class="cls-7" d="M196.93,305.75c-4.08,10.28,2.39,15.93,7.49,19.68,4.59,3.36,3.41,7.83,3.37,19.57h17.06c3.46-5.05,4.94-5.61,15.31-13.1,12.26-8.85,2.05-20.09.35-29.31a14.55,14.55,0,0,1-.29-4.2H201.33A28.61,28.61,0,0,0,196.93,305.75Z"/><path class="cls-6" d="M260.17,228.92c-2.41-.36-7-.6-10,2.11a42,42,0,0,0-4.28,4.88c-4.23,5.33-10,12.62-21.36,11.9a22.18,22.18,0,0,1-2.24-.26c.12.56.25,1.11.4,1.62,3,10.22-9.79,9.88-12.88,15.34s-5.08,13.6-2.69,21.19c1.67,5.34-2,8-5.82,12.69h38.89c.53-4.55,4.87-4.25,11.27-9.87,7.92-7,1.95-10.75,1.61-24s8.51-8.53,11.5-24.35a20.46,20.46,0,0,0,.12-7.09A18.68,18.68,0,0,1,260.17,228.92Z"/><path class="cls-7" d="M251.49,214.53l-28.77,4.28s-2.68,18.17-.4,28.74a22.18,22.18,0,0,0,2.24.26c11.34.72,17.13-6.57,21.36-11.9A42,42,0,0,1,250.2,231c3-2.71,7.56-2.47,10-2.11a18.68,18.68,0,0,0,4.55,4.15C262.87,221.46,251.49,214.53,251.49,214.53Z"/><path class="cls-4" d="M235.74,215.81a65.33,65.33,0,0,1,7.94,12.24,34.74,34.74,0,0,1,2.56,7,16.66,16.66,0,0,1,.44,3.83,10.11,10.11,0,0,1-.8,3.95,16.1,16.1,0,0,1-1.93,3.4,24.09,24.09,0,0,1-2.53,2.83,12.1,12.1,0,0,0-3.59,5.44,24.4,24.4,0,0,0-.83,6.75c0,1.17,0,2.34.1,3.53l.12,1.77.09,1.9a16.64,16.64,0,0,1-.35,4,9.31,9.31,0,0,1-2,3.82c-1,1-1.89,1.79-2.72,2.59a16.7,16.7,0,0,0-2.19,2.51c-2.55,3.65-3.81,8.4-4.58,13s-.14,9.3.62,14.13a19.27,19.27,0,0,1-.2,7.41,20,20,0,0,1-3.2,6.57,22,22,0,0,0,2.39-6.73,18.81,18.81,0,0,0-.44-7c-.5-2.34-1.1-4.72-1.41-7.19a30.69,30.69,0,0,1-.09-7.48,40.45,40.45,0,0,1,1.44-7.33,26.33,26.33,0,0,1,3.13-7,17.73,17.73,0,0,1,2.52-3c.91-.88,1.84-1.67,2.52-2.43a6.17,6.17,0,0,0,1.29-2.58,13.54,13.54,0,0,0,.24-3.23l-.07-1.73-.09-1.85c-.1-1.23-.08-2.47-.08-3.72a26,26,0,0,1,1.07-7.58A13.1,13.1,0,0,1,237,250a19.52,19.52,0,0,1,2.61-2.85,17,17,0,0,0,4.17-5.31,10.84,10.84,0,0,0,.57-6.46,33.51,33.51,0,0,0-2-6.77A83.16,83.16,0,0,0,235.74,215.81Z"/><path class="cls-5" d="M174.67,309.09c4.77,10.89,2,18-6.13,27.23-1.62,1.83-2.43,4.94-2.71,8.68H196c4.92-11.65-2.88-10.87,5.94-22.57,7-9.31,3.51-16.75.25-24h-31.4A101.77,101.77,0,0,0,174.67,309.09Z"/><path class="cls-4" d="M194,235.23c-4.9,1.42-10.56,10.42-22.9,15.85.76,6.48.72,12.78-1.52,16.48-4.22,6.94-2.11,20,1.19,30.83h31.4a49.82,49.82,0,0,1-2.64-6.75c-2.72-9.62,9.88-14.21,6.47-22.52s1-9.05,10.55-21.08c.47-.59.88-1.18,1.27-1.78a33,33,0,0,1-7.84-5C205.85,238,201.08,233.17,194,235.23Z"/><path class="cls-5" d="M220,220.32l-15-16s-37.79,22.09-38.12,24.48c-.2,1.46,3,12.11,4.24,22.33,12.34-5.43,18-14.43,22.9-15.85,7.09-2.06,11.86,2.8,16,6a33,33,0,0,0,7.84,5C225.49,234.52,220,220.32,220,220.32Z"/><path class="cls-6" d="M202.93,211.64A74.46,74.46,0,0,1,204.56,226a48.36,48.36,0,0,1-1.78,14.54,23.86,23.86,0,0,1-3.21,6.84c-.35.54-.79,1-1.18,1.54l-1.19,1.36-2.39,2.7c-3.15,3.58-6.52,7.05-8,11.17s-.93,8.78.16,13.33,2.48,9.22,3.53,13.95A54,54,0,0,1,192.17,306a25,25,0,0,1-4.56,13.68,26.68,26.68,0,0,0,3.09-13.7A58.83,58.83,0,0,0,188.22,292c-1.3-4.58-2.79-9.14-4-13.86a37.73,37.73,0,0,1-1.24-7.36,19,19,0,0,1,1-7.67,23.9,23.9,0,0,1,3.9-6.56c1.55-1.94,3.19-3.74,4.84-5.49l2.45-2.62,1.22-1.31c.35-.44.74-.83,1.05-1.29a23.05,23.05,0,0,0,3.12-6A51.22,51.22,0,0,0,203.09,226,99.55,99.55,0,0,0,202.93,211.64Z"/><path class="cls-7" d="M121.07,315.26c-1.78,10.92,5.76,15,11.55,17.6,4.13,1.82,4.87,5.13,6.24,12.14h19.06c1.82-3.66,3.94-5.61,11-13.52,10.05-11.29-2.33-20.06-6-28.7a12.94,12.94,0,0,1-1.19-4.39h-34C127,302.88,122.39,307.15,121.07,315.26Z"/><path class="cls-6" d="M133.11,252.5c.31.69.62,1.35.95,1.95,5.11,9.33-7.43,11.75-9.27,17.75s-2,14.38,1.93,21.27a7.28,7.28,0,0,1,1,4.92h34c-.2-4.23,4-5,8.88-11.72,6.23-8.49-.4-10.91-3.59-23.78-1.37-5.51-.38-8.16,1.16-10.65a52.92,52.92,0,0,1-18.2,3A50,50,0,0,1,133.11,252.5Z"/><path class="cls-7" d="M173,236.63c-.49-16.1-18.33-22.21-18.33-22.21L127.52,224.8s1.25,17.76,5.59,27.7A50,50,0,0,0,150,255.23a52.92,52.92,0,0,0,18.2-3C170.25,248.9,173.3,245.85,173,236.63Z"/><path class="cls-4" d="M139.59,219.07A64.55,64.55,0,0,1,150,229.32a33.58,33.58,0,0,1,4,6.27,16.31,16.31,0,0,1,1.26,3.64,10.11,10.11,0,0,1,.07,4,16,16,0,0,1-1.15,3.74,24.24,24.24,0,0,1-1.87,3.3,12.36,12.36,0,0,0-2.33,6.09,25.06,25.06,0,0,0,.64,6.77c.27,1.14.51,2.29.87,3.42l.49,1.71.5,1.83a16.41,16.41,0,0,1,.51,4,9.18,9.18,0,0,1-1.1,4.15c-.7,1.21-1.46,2.16-2.09,3.11a16.43,16.43,0,0,0-1.6,2.93c-1.71,4.12-1.92,9-1.68,13.66s1.87,9.11,3.65,13.66a19.31,19.31,0,0,1,1.41,7.29,20.21,20.21,0,0,1-1.72,7.1,21.78,21.78,0,0,0,.88-7.09,19,19,0,0,0-1.93-6.74c-1-2.17-2.09-4.37-2.93-6.72a30.7,30.7,0,0,1-1.69-7.28,39.68,39.68,0,0,1-.18-7.47,26.28,26.28,0,0,1,1.56-7.48,18.06,18.06,0,0,1,1.81-3.46c.7-1.06,1.44-2,1.94-2.92a6.05,6.05,0,0,0,.7-2.8,13.15,13.15,0,0,0-.46-3.2l-.43-1.67-.5-1.79c-.35-1.18-.61-2.4-.87-3.62a26,26,0,0,1-.6-7.63,13.61,13.61,0,0,1,1-3.9,19.62,19.62,0,0,1,1.94-3.35,17,17,0,0,0,2.93-6.08,10.92,10.92,0,0,0-.84-6.43,32.78,32.78,0,0,0-3.4-6.18A83,83,0,0,0,139.59,219.07Z"/><path class="cls-8" d="M150,154.19H0v56.54c2.27,6,6.77,13,15.63,15.38,16.34,4.42,21.19-5.79,21.19-5.79s10-2.91,16.34,2.89,10,16.26,22,15.49,13-12.59,30.89-12.59c20.43,0-1.53,20,44,20s23.56-20,44-20c17.91,0,18.89,11.83,30.89,12.59s15.58-9.7,22-15.49,16.34-2.89,16.34-2.89,4.85,10.21,21.19,5.79c8.86-2.4,13.36-9.43,15.63-15.38V154.19Z"/><path class="cls-6" d="M259.43,212.13c1.44,3,3.75,8.19,3.75,8.19a21.45,21.45,0,0,0-3.87-.65q-1.35-3.13-2.65-6.3c-1.43-3.5-2.82-7-4.14-10.56s-2.57-7.12-3.72-10.74q2.91,4.91,5.52,9.93C256.09,205.35,257.78,208.73,259.43,212.13Z"/><path class="cls-6" d="M217.15,236.19c-2.1-1.3-4-2.93-6.07-4.5-1.75-3.37-3.43-6.78-5.08-10.2-3.13-6.56-6.14-13.19-8.69-20.06,4.14,6,7.83,12.32,11.39,18.66C211.64,225.39,214.51,230.74,217.15,236.19Z"/><path class="cls-6" d="M180.48,219.35c.53,2.58,1,5.17,1.36,7.76.32,2.1.59,4.21.83,6.33a18.77,18.77,0,0,1-3,5.24c-.15-1.14-.28-2.28-.4-3.42q-.39-3.9-.58-7.83c-.12-2.62-.21-5.24-.21-7.87s0-5.27.24-7.92C179.4,214.2,180,216.77,180.48,219.35Z"/><path class="cls-6" d="M221.5,188.85a30.29,30.29,0,0,1,1.79,5.24,51.71,51.71,0,0,1,1.06,5.41c.27,1.82.47,3.65.56,5.52a35.76,35.76,0,0,1-.07,5.66,35.67,35.67,0,0,1-2.47-5.1c-.72-1.72-1.31-3.47-1.85-5.23a52.11,52.11,0,0,1-1.34-5.34,30.58,30.58,0,0,1-.61-5.51Z"/><path class="cls-6" d="M268.72,179.59a39.46,39.46,0,0,1,3.61,4.15c1.12,1.45,2.16,3,3.18,4.49s2,3.11,2.85,4.74a43.46,43.46,0,0,1,2.44,5,42.8,42.8,0,0,1-4.2-3.71c-1.33-1.29-2.57-2.65-3.79-4s-2.37-2.8-3.46-4.27a40.5,40.5,0,0,1-3-4.6Z"/><path class="cls-6" d="M261.59,180.22a29.07,29.07,0,0,1,1.34,4.78c.34,1.62.58,3.25.76,4.89s.27,3.31.3,5a32.38,32.38,0,0,1-.28,5.08,32.46,32.46,0,0,1-2.08-4.65q-.86-2.36-1.49-4.75c-.42-1.6-.78-3.21-1-4.84a29.12,29.12,0,0,1-.46-5Z"/><path class="cls-6" d="M40.57,212.13c-1.44,3-3.75,8.19-3.75,8.19a21.45,21.45,0,0,1,3.87-.65q1.35-3.13,2.65-6.3c1.43-3.5,2.82-7,4.14-10.56s2.57-7.12,3.72-10.74Q48.29,197,45.68,202C43.91,205.35,42.22,208.73,40.57,212.13Z"/><path class="cls-6" d="M82.85,236.19c2.1-1.3,4-2.93,6.07-4.5,1.75-3.37,3.43-6.78,5.08-10.2,3.13-6.56,6.14-13.19,8.69-20.06-4.14,6-7.83,12.32-11.39,18.66C88.36,225.39,85.49,230.74,82.85,236.19Z"/><path class="cls-6" d="M119.52,219.35c-.53,2.58-1,5.17-1.36,7.76-.32,2.1-.59,4.21-.83,6.33a18.77,18.77,0,0,0,3,5.24c.15-1.14.28-2.28.4-3.42q.39-3.9.58-7.83c.12-2.62.21-5.24.21-7.87s0-5.27-.24-7.92C120.6,214.2,120,216.77,119.52,219.35Z"/><path class="cls-6" d="M81.43,189.5a30.58,30.58,0,0,1-.61,5.51,52.11,52.11,0,0,1-1.34,5.34c-.54,1.76-1.13,3.51-1.85,5.23a35.67,35.67,0,0,1-2.47,5.1,35.76,35.76,0,0,1-.07-5.66c.09-1.87.29-3.7.56-5.52a51.71,51.71,0,0,1,1.06-5.41,30.29,30.29,0,0,1,1.79-5.24Z"/><path class="cls-6" d="M33.67,181.4a40.5,40.5,0,0,1-3,4.6c-1.09,1.47-2.26,2.88-3.46,4.27s-2.46,2.74-3.79,4A42.8,42.8,0,0,1,19.2,198a43.46,43.46,0,0,1,2.44-5c.89-1.63,1.86-3.19,2.85-4.74s2.06-3,3.18-4.49a39.46,39.46,0,0,1,3.61-4.15Z"/><path class="cls-6" d="M41.36,180.76a29.12,29.12,0,0,1-.46,5c-.26,1.63-.62,3.24-1,4.84s-.92,3.18-1.49,4.75A32.46,32.46,0,0,1,36.29,200a32.38,32.38,0,0,1-.28-5.08c0-1.67.12-3.33.3-5s.42-3.27.76-4.89a29.07,29.07,0,0,1,1.34-4.78Z"/><path class="cls-6" d="M263.62,45H36.38A36.38,36.38,0,0,0,0,81.38V163c4.78,5.89,10.91,11.75,18.44,15.68,20.93,11,32.69,2.07,44.15,7.54a137.83,137.83,0,0,0,49,13.37c16.63,1.39,21.87-1.38,38.14-1.45s21.52,2.84,38.14,1.45a137.83,137.83,0,0,0,49-13.37c11.46-5.47,23.22,3.42,44.15-7.54,7.87-4.11,14.22-10.32,19.08-16.46V81.38A36.38,36.38,0,0,0,263.62,45Z"/><path class="cls-3" d="M251.26,61.3H48.74C30.83,61.3,16.31,74.16,16.31,90V140.8a28.59,28.59,0,0,0,16.23,25.94l.2.09c18.66,8.65,29.14,1.64,39.35,6a135.38,135.38,0,0,0,43.64,10.55c14.81,1.1,19.49-1.09,34-1.14s19.17,2.24,34,1.14a135.38,135.38,0,0,0,43.63-10.55c10.21-4.32,20.69,2.69,39.35-6,.59-.27,1.17-.55,1.74-.85a28.59,28.59,0,0,0,15.26-25.44V90C283.69,74.16,269.17,61.3,251.26,61.3Z"/><path class="cls-9" d="M263.62,45H36.38A36.38,36.38,0,0,0,0,81.38V163c4.78,5.89,10.91,11.75,18.44,15.68,20.93,11,32.69,2.07,44.15,7.54a137.83,137.83,0,0,0,49,13.37c16.63,1.39,21.87-1.38,38.14-1.45s21.52,2.84,38.14,1.45a137.83,137.83,0,0,0,49-13.37c11.46-5.47,23.22,3.42,44.15-7.54,7.87-4.11,14.22-10.32,19.08-16.46V81.38A36.38,36.38,0,0,0,263.62,45Z"/><path class="cls-10" d="M162.85,163.09s-2,4.25-12.85,4.25-12.85-4.25-12.85-4.25"/><ellipse class="cls-3" cx="212.39" cy="137.89" rx="5.24" ry="6.8"/><ellipse class="cls-3" cx="87.61" cy="137.89" rx="5.24" ry="6.8"/><ellipse class="cls-6" cx="251.03" cy="94.69" rx="14.31" ry="18.61" transform="translate(47.76 269.81) rotate(-61.41)"/><circle class="cls-6" cx="220.37" cy="84.72" r="8.87"/></g></svg>