<svg id="Layer_1" data-name="Layer 1" xmlns="http://www.w3.org/2000/svg" xmlns:xlink="http://www.w3.org/1999/xlink" viewBox="0 0 300 345"><defs><style>.cls-1{fill:url(#linear-gradient);}.cls-2{fill:#dae6f5;}.cls-3{fill:url(#radial-gradient);}.cls-4{fill:url(#radial-gradient-2);}.cls-5{fill:#9cb9db;}.cls-6{fill:#fff;}.cls-7{fill:#414042;}.cls-8,.cls-9{fill:none;stroke-linecap:round;stroke-miterlimit:10;stroke-width:6px;}.cls-8{stroke:#8aa9ce;}.cls-9{stroke:#436789;}.cls-10{fill:#c1956a;}.cls-11{fill:#dcbf9a;}.cls-12{fill:#d8ac80;}.cls-13{fill:#b6cbe9;}</style><linearGradient id="linear-gradient" x1="150" y1="356.11" x2="150" y2="161.16" gradientUnits="userSpaceOnUse"><stop offset="0" stop-color="#9dc6ea"/><stop offset="1" stop-color="#416eb5"/></linearGradient><radialGradient id="radial-gradient" cx="264.75" cy="263.99" r="32.17" gradientUnits="userSpaceOnUse"><stop offset="0" stop-color="#e573ac" stop-opacity="0.6"/><stop offset="0.15" stop-color="#e577af" stop-opacity="0.58"/><stop offset="0.32" stop-color="#e384b7" stop-opacity="0.51"/><stop offset="0.52" stop-color="#e198c4" stop-opacity="0.4"/><stop offset="0.72" stop-color="#dfb5d6" stop-opacity="0.25"/><stop offset="0.94" stop-color="#dbdaed" stop-opacity="0.06"/><stop offset="1" stop-color="#dae6f5" stop-opacity="0"/></radialGradient><radialGradient id="radial-gradient-2" cx="35.25" cy="263.99" r="32.17" xlink:href="#radial-gradient"/></defs><g id="underwater"><path class="cls-1" d="M263.62,345H36.38A36.38,36.38,0,0,1,0,308.62V259.14H300v49.48A36.38,36.38,0,0,1,263.62,345Z"/><path class="cls-2" d="M150,45C0,45,0,183.54,0,183.54V262a36.38,36.38,0,0,0,36.38,36.38H263.62A36.38,36.38,0,0,0,300,262V183.54S300,45,150,45Z"/><circle class="cls-3" cx="264.75" cy="263.99" r="32.17"/><circle class="cls-4" cx="35.25" cy="263.99" r="32.17"/><circle class="cls-5" cx="242.58" cy="233.7" r="36.45"/><circle class="cls-5" cx="57.42" cy="233.7" r="36.45"/><circle class="cls-6" cx="242.58" cy="243.82" r="36.45"/><circle class="cls-6" cx="57.42" cy="243.82" r="36.45"/><path class="cls-7" d="M270.21,237.75a16.31,16.31,0,0,1-23.54-21.92,29,29,0,0,0-4.09-.3,28.29,28.29,0,1,0,28.29,28.29A28.8,28.8,0,0,0,270.21,237.75Zm-39.75,24.53a6.73,6.73,0,1,1,6.73-6.72A6.72,6.72,0,0,1,230.46,262.28Z"/><path class="cls-7" d="M85.05,237.75a16.31,16.31,0,0,1-23.54-21.92,29.06,29.06,0,0,0-4.09-.3,28.29,28.29,0,1,0,28.29,28.29A28.8,28.8,0,0,0,85.05,237.75ZM45.3,262.28A6.73,6.73,0,1,1,52,255.56,6.72,6.72,0,0,1,45.3,262.28Z"/><path class="cls-8" d="M170.43,259.05S168.11,274.7,150,274.7s-20.43-15.65-20.43-15.65"/><path class="cls-9" d="M228.19,315.9s5.82,19.4,36.58,17c23.4-1.82,26.08-19.41,13.71-19.07-12.69.35-13.71-6.46-13.71-6.46"/><path class="cls-9" d="M71.81,315.9s-5.82,19.4-36.58,17c-23.4-1.82-26.08-19.41-13.71-19.07,12.69.35,13.71-6.46,13.71-6.46"/><ellipse class="cls-5" cx="150" cy="196.35" rx="21.5" ry="13.16"/><path class="cls-10" d="M164.37,185.64c0,11.94-3.7,15.86-14.37,15.86s-14.37-3.92-14.37-15.86-2.16-35.83,14.37-35.83S164.37,173.7,164.37,185.64Z"/><path class="cls-11" d="M161,180.55c0,11.89-2.84,15.8-11,15.8s-11-3.91-11-15.8-1.66-35.67,11-35.67S161,168.67,161,180.55Z"/><path class="cls-12" d="M150,144.88c-12.7,0-11,23.79-11,35.67,0,.39,0,.74,0,1.11,2.13,2.76,5.65,3.86,11,3.86s8.89-1.1,11-3.86c0-.37,0-.72,0-1.11C161,168.67,162.7,144.88,150,144.88Z"/><path class="cls-10" d="M164.37,162.48c0,11.94-3.7,15.86-14.37,15.86s-14.37-3.92-14.37-15.86-2.16-35.82,14.37-35.82S164.37,150.54,164.37,162.48Z"/><path class="cls-11" d="M161,157.4c0,11.89-2.84,15.79-11,15.79s-11-3.9-11-15.79-1.66-35.67,11-35.67S161,145.51,161,157.4Z"/><path class="cls-12" d="M150,121.73c-12.15,0-11.16,21.77-11.05,34.06,2,3.28,5.48,4.55,11.05,4.55s9.06-1.27,11.05-4.55C161.16,143.5,162.15,121.73,150,121.73Z"/><path class="cls-10" d="M164.37,136.64c0,11.94-3.7,15.86-14.37,15.86s-14.37-3.92-14.37-15.86-2.16-35.83,14.37-35.83S164.37,124.7,164.37,136.64Z"/><path class="cls-11" d="M161,131.67c0,11.88-2.84,15.79-11,15.79s-11-3.91-11-15.79S137.3,96,150,96,161,119.78,161,131.67Z"/><path class="cls-12" d="M150,96c-12.23,0-11.14,22.06-11,34.31,2,3.09,5.53,4.3,11,4.3s9-1.21,11-4.3C161.14,118.05,162.23,96,150,96Z"/><path class="cls-10" d="M164.37,110.8c0,11.94-3.7,15.86-14.37,15.86s-14.37-3.92-14.37-15.86S133.47,75,150,75,164.37,98.86,164.37,110.8Z"/><path class="cls-11" d="M161,105.93c0,11.89-2.84,15.8-11,15.8s-11-3.91-11-15.8-1.66-35.67,11-35.67S161,94.05,161,105.93Z"/><path class="cls-12" d="M150,70.26c-11.63,0-11.22,20-11.06,32.45,2,3.32,5.47,4.61,11.06,4.61s9.09-1.29,11.06-4.61C161.22,90.22,161.63,70.26,150,70.26Z"/><path class="cls-10" d="M163.75,89c0,8.89-3.54,11.8-13.75,11.8S136.25,97.9,136.25,89,134.18,62.35,150,62.35,163.75,80.13,163.75,89Z"/><path class="cls-11" d="M160.56,84.24C160.56,93.09,157.84,96,150,96s-10.56-2.9-10.56-11.75S137.85,57.7,150,57.7,160.56,75.4,160.56,84.24Z"/><path class="cls-12" d="M150,57.7c-10.56,0-10.74,13.36-10.61,22.66,1.62,3.23,4.91,4.46,10.61,4.46s9-1.23,10.61-4.46C160.74,71.06,160.56,57.7,150,57.7Z"/><path class="cls-10" d="M162.81,67.5c0,8.28-3.3,11-12.81,11s-12.81-2.72-12.81-11S135.26,42.66,150,42.66,162.81,59.22,162.81,67.5Z"/><path class="cls-11" d="M159.84,62.8c0,8.24-2.53,11-9.84,11s-9.84-2.71-9.84-11S138.68,38.07,150,38.07,159.84,54.56,159.84,62.8Z"/><path class="cls-12" d="M150,38.07c-9.25,0-9.95,11-9.9,19.53,1.57,2.83,4.66,3.9,9.9,3.9s8.33-1.07,9.9-3.9C160,49.08,159.25,38.07,150,38.07Z"/><path class="cls-10" d="M161.88,45.71c0,7.68-3.06,10.2-11.88,10.2s-11.88-2.52-11.88-10.2-1.79-23,11.88-23S161.88,38,161.88,45.71Z"/><path class="cls-11" d="M159.13,41.09c0,7.65-2.35,10.16-9.13,10.16s-9.13-2.51-9.13-10.16S139.5,18.15,150,18.15,159.13,33.45,159.13,41.09Z"/><path class="cls-12" d="M150,19.38a8.12,8.12,0,0,0-7.58,4.22c-1.55,3.86-1.65,9.1-1.6,13.47,1.86,1.59,4.8,2.22,9.18,2.22s7.32-.63,9.18-2.22c0-4.37-.05-9.61-1.6-13.47A8.12,8.12,0,0,0,150,19.38Z"/><path class="cls-10" d="M150,34.7c18.84,0,6.23-34.7,0-34.7S131.16,34.7,150,34.7Z"/><path class="cls-11" d="M150,30.41c13,0,4.89-24.52,0-24.52C146,5.89,137.92,30.41,150,30.41Z"/><ellipse class="cls-5" cx="194.19" cy="74.84" rx="15.15" ry="23" transform="translate(75.45 245.75) rotate(-76.29)"/><ellipse class="cls-5" cx="234.7" cy="91.6" rx="14.84" ry="12.18"/><ellipse class="cls-13" cx="230.44" cy="119.46" rx="7.09" ry="8.64" transform="translate(59.75 315) rotate(-76.29)"/><ellipse class="cls-13" cx="256.89" cy="113.21" rx="8.64" ry="7.09" transform="translate(-23.53 100.09) rotate(-21.1)"/><ellipse class="cls-13" cx="202.54" cy="111.12" rx="10.38" ry="10.31"/><ellipse class="cls-5" cx="105.81" cy="74.84" rx="23" ry="15.15" transform="translate(-14.73 27.22) rotate(-13.71)"/><ellipse class="cls-5" cx="65.3" cy="91.6" rx="14.84" ry="12.18"/><ellipse class="cls-13" cx="69.56" cy="119.46" rx="8.64" ry="7.09" transform="translate(-26.34 19.9) rotate(-13.71)"/><ellipse class="cls-13" cx="43.11" cy="113.21" rx="7.09" ry="8.64" transform="translate(-78.03 112.66) rotate(-68.9)"/><ellipse class="cls-13" cx="97.46" cy="111.12" rx="10.38" ry="10.31"/></g></svg>