<svg id="Layer_1" data-name="Layer 1" xmlns="http://www.w3.org/2000/svg" xmlns:xlink="http://www.w3.org/1999/xlink" viewBox="0 0 300 345"><defs><style>.cls-1{fill:url(#linear-gradient);}.cls-2{fill:#a15095;}.cls-3{fill:#8a3a85;}.cls-4{fill:#5b275a;}.cls-5{fill:#782c77;}.cls-6{fill:#b563a7;}.cls-7{fill:none;stroke:#5b275a;stroke-linecap:round;stroke-miterlimit:10;stroke-width:6px;}.cls-8{fill:url(#linear-gradient-2);}.cls-9{fill:url(#linear-gradient-3);}.cls-10{fill:#fff;}.cls-11{fill:#414042;}</style><linearGradient id="linear-gradient" x1="150" y1="356.11" x2="150" y2="161.16" gradientUnits="userSpaceOnUse"><stop offset="0" stop-color="#a15095"/><stop offset="0.4" stop-color="#822778"/></linearGradient><linearGradient id="linear-gradient-2" x1="24.31" y1="346.71" x2="24.31" y2="157.83" gradientUnits="userSpaceOnUse"><stop offset="0" stop-color="#8a3a85"/><stop offset="0.38" stop-color="#782c77"/></linearGradient><linearGradient id="linear-gradient-3" x1="-144.59" y1="346.71" x2="-144.59" y2="157.83" gradientTransform="matrix(-1, 0, 0, 1, 130.75, 0)" xlink:href="#linear-gradient-2"/></defs><g id="underwater"><path class="cls-1" d="M263.62,345H36.38A36.38,36.38,0,0,1,0,308.62V259.14H300v49.48A36.38,36.38,0,0,1,263.62,345Z"/><rect class="cls-2" y="45" width="300" height="253.39" rx="36.38"/><path class="cls-3" d="M39.58,222.31c0-9.19-3.22-30.24-20.77-32.37-9.53-1.16-15.31,1-18.81,3.87V262a36.38,36.38,0,0,0,36.38,36.38l2.17.83c3-.39,4.77-.83,4.77-.83L54.55,247C42.07,247,39.58,231.5,39.58,222.31Z"/><path class="cls-4" d="M54.55,244c-11.11,0-12-16.61-12-21.7,0-15-6.13-33.25-23.41-35.35-7.93-1-14.36.1-19.17,3.14v8a11.94,11.94,0,0,1,1.88-2c3.64-3,9.21-4.12,16.57-3.22,17.62,2.14,18.13,26.61,18.13,29.39,0,13.39,4.72,27.7,18,27.7a3,3,0,1,0,0-6Z"/><ellipse class="cls-4" cx="12.32" cy="270.12" rx="7.46" ry="12.13" transform="translate(-79.98 15.96) rotate(-17.35)"/><ellipse class="cls-5" cx="9.3" cy="270.87" rx="6.44" ry="10.47" transform="translate(-80.34 15.09) rotate(-17.35)"/><ellipse class="cls-2" cx="9.29" cy="270.87" rx="4.21" ry="6.85" transform="translate(-80.34 15.09) rotate(-17.35)"/><path class="cls-4" d="M10.93,240.1c-.35-5.84-2.92-10.44-7.14-10.18a5.11,5.11,0,0,0-3.79,2V248.6a5.35,5.35,0,0,0,5.06,2.47C10,250.78,11.28,246,10.93,240.1Z"/><path class="cls-5" d="M1.16,231.36a4.77,4.77,0,0,0-1.16.23v17.68a5,5,0,0,0,2.25.35c4.23-.25,5.37-4.42,5.07-9.46S4.8,231.15,1.16,231.36Z"/><path class="cls-2" d="M1.34,234.51a2.87,2.87,0,0,0-1.34.43v11a3.1,3.1,0,0,0,2.05.55c2.77-.17,3.52-2.9,3.32-6.2S3.72,234.37,1.34,234.51Z"/><ellipse class="cls-4" cx="5.31" cy="210.97" rx="9.07" ry="5.57" transform="matrix(0.1, -1, 1, 0.1, -205.2, 195.94)"/><path class="cls-5" d="M3.76,202.82A4.06,4.06,0,0,0,0,204.73v12.8a4.1,4.1,0,0,0,2.25.87c3.62.35,5.13-3,5.54-7.33S6.87,203.12,3.76,202.82Z"/><path class="cls-2" d="M3.49,205.51c-1.8-.17-3,1.52-3.49,3.88v4a2.77,2.77,0,0,0,2.51,2.37c2.36.23,3.35-2,3.62-4.8S5.53,205.71,3.49,205.51Z"/><path class="cls-2" d="M96.44,243.58S92.35,255.66,77,255.32c-19.4-.43-15.08-23.74-34.37-26.47-13.52-1.91-25.3,6.82-23.49,34.9,2.54,39.55,49.35,41.8,49.35,41.8l20.09-7.16"/><path class="cls-6" d="M68.51,305.55l18.86-6.72h0a17.1,17.1,0,0,0-15.1-19.49c-1.18-.12-2.44-.3-3.76-.55-20-3.83-17.19-36.43-35.06-37.45-11.8-.67-13.34,7.46-11.68,34.93C32.13,303.8,68.51,305.55,68.51,305.55Z"/><path class="cls-7" d="M68.51,305.55s-46.81-2.25-49.35-41.8c-1.81-28.08,10-36.81,23.49-34.9,19.29,2.73,15,26,34.37,26.47,15.33.34,19.42-11.74,19.42-11.74"/><ellipse class="cls-4" cx="65.43" cy="295.55" rx="7.46" ry="12.13" transform="translate(-207.21 164.02) rotate(-51.76)"/><ellipse class="cls-5" cx="63.36" cy="297.87" rx="6.44" ry="10.47" transform="translate(-209.82 163.29) rotate(-51.76)"/><ellipse class="cls-2" cx="63.35" cy="297.88" rx="4.21" ry="6.85" transform="translate(-209.83 163.28) rotate(-51.76)"/><ellipse class="cls-4" cx="42.09" cy="278.58" rx="6.51" ry="10.6" transform="translate(-178.64 103.49) rotate(-42.99)"/><ellipse class="cls-5" cx="40" cy="280.32" rx="5.62" ry="9.15" transform="translate(-180.39 102.53) rotate(-42.99)"/><ellipse class="cls-2" cx="39.99" cy="280.32" rx="3.68" ry="5.99" transform="translate(-180.39 102.53) rotate(-42.99)"/><ellipse class="cls-4" cx="32.18" cy="255.98" rx="5.57" ry="9.07"/><ellipse class="cls-5" cx="29.86" cy="255.84" rx="4.81" ry="7.83"/><ellipse class="cls-2" cx="29.85" cy="255.84" rx="3.15" ry="5.12"/><path class="cls-2" d="M96.51,324.08c-11.66,11.28-26,8.84-40.78,4-9.69-3.17-24.58-6.65-32.29,7.82a10.71,10.71,0,0,0-1,6.32,36.17,36.17,0,0,0,14,2.78h70.55l12-19.09C115.44,318.33,104.68,316.19,96.51,324.08Z"/><path class="cls-8" d="M36.68,298.39h-.3A36.38,36.38,0,0,1,0,262v46.61A36.38,36.38,0,0,0,35.06,345C22.63,338.52,18,324,21.45,315.3c5.94-14.84,17.07-13.34,27.1-10.74l.06-.38A62.45,62.45,0,0,1,36.68,298.39Z"/><path class="cls-4" d="M27.44,334.29c-3.89-5.76-5.18-12.94-3.21-17.88,5.18-12.93,13.89-11.61,26.6-8.13,4,1.08,7.68,2.11,11,2.11,19.82,0,25.91-10.31,26.16-10.75a3,3,0,0,0-1.09-4.05,3,3,0,0,0-4.1,1.05c-.19.31-4.89,7.75-21,7.75-2.48,0-5.83-.92-9.37-1.89-10.44-2.86-26.21-7.19-33.76,11.69-2.72,6.81-1.22,16,3.82,23.46a30.93,30.93,0,0,0,5.83,6.44,36.43,36.43,0,0,0,8.07.91h9A24.79,24.79,0,0,1,27.44,334.29Z"/><path class="cls-4" d="M122.9,312.23a3,3,0,0,0-3.26,2.71c-1.86,20.39-20.33,29.7-20.61,29.83-.13.07-.25.15-.37.23h10.76c6.49-5.31,14.86-14.86,16.19-29.51A3,3,0,0,0,122.9,312.23Z"/><path class="cls-4" d="M121.86,337.78a24.9,24.9,0,0,1-7.2-1.15,3,3,0,0,1,1.89-5.7c1.76.58,7.27,1.74,9.52-.32a3,3,0,1,1,4.06,4.42A12,12,0,0,1,121.86,337.78Z"/><path class="cls-4" d="M96.61,331.42c-5.88,3.2-9.4,8.09-7.09,12.34a5.72,5.72,0,0,0,.9,1.24H102.8q.47-.22.93-.48c5.89-3.2,9.78-7.4,7.1-12.34S102.5,328.22,96.61,331.42Z"/><path class="cls-5" d="M98.42,335.14C93.7,337.7,90.75,341.53,92,345h15c3.67-2.54,5.69-5.65,3.76-9.21C108.37,331.53,103.5,332.38,98.42,335.14Z"/><path class="cls-2" d="M99.49,337.1c-3.33,1.81-5.32,4.57-4,7a3.19,3.19,0,0,0,.76.93h6.26c.34-.15.68-.31,1-.5,3.33-1.8,5.53-4.18,4-7S102.81,335.29,99.49,337.1Z"/><path class="cls-4" d="M69.62,337.57c-5.85,0-10.6,2.29-10.6,6.52a5.4,5.4,0,0,0,.09.91h21a6.62,6.62,0,0,0,.06-.91C80.21,339.17,75.47,337.57,69.62,337.57Z"/><path class="cls-5" d="M60.7,345H78.29c-1-2.83-4.59-3.82-8.83-3.82S61.82,342.51,60.7,345Z"/><path class="cls-2" d="M64.11,345H74.92c-.93-1.37-3-1.87-5.46-1.87S65.1,343.78,64.11,345Z"/><path class="cls-4" d="M43.71,334.48c-4.84-1.28-9.27-.44-10.2,3.06-.87,3.28,2.1,6.07,6.47,7.46h9.13A4.67,4.67,0,0,0,51,342.2C52.12,338.13,48.55,335.77,43.71,334.48Z"/><path class="cls-5" d="M42.78,337.43c-4.18-1.11-8-.38-8.8,2.64-.51,1.92.51,3.64,2.39,4.93H48.76a4.91,4.91,0,0,0,.35-.91C50,340.58,47,338.54,42.78,337.43Z"/><path class="cls-2" d="M42.35,339c-2.73-.73-5.23-.25-5.76,1.73s1.21,3.45,3.7,4.23h5.05a2.57,2.57,0,0,0,1.15-1.6C47.1,341.1,45.09,339.77,42.35,339Z"/><path class="cls-3" d="M260.07,222.31c0-9.19,3.21-30.24,20.77-32.37,9.53-1.16,15.3,1,18.81,3.87V262a36.38,36.38,0,0,1-36.38,36.38l-2.18.83c-2.95-.39-4.76-.83-4.76-.83L245.09,247C257.58,247,260.07,231.5,260.07,222.31Z"/><path class="cls-4" d="M245.09,244c11.12,0,12-16.61,12-21.7,0-15,6.13-33.25,23.41-35.35,7.93-1,14.36.1,19.17,3.14v8a12,12,0,0,0-1.89-2c-3.64-3-9.21-4.12-16.56-3.22-17.62,2.14-18.13,26.61-18.13,29.39,0,13.39-4.72,27.7-18,27.7a3,3,0,0,1,0-6Z"/><ellipse class="cls-4" cx="287.32" cy="270.12" rx="12.13" ry="7.46" transform="translate(-56.18 463.83) rotate(-72.65)"/><ellipse class="cls-5" cx="290.34" cy="270.87" rx="10.47" ry="6.44" transform="translate(-54.77 467.24) rotate(-72.65)"/><ellipse class="cls-2" cx="290.35" cy="270.87" rx="6.85" ry="4.21" transform="translate(-54.77 467.25) rotate(-72.65)"/><path class="cls-4" d="M288.72,240.1c.35-5.84,2.91-10.44,7.13-10.18a5.11,5.11,0,0,1,3.8,2V248.6a5.37,5.37,0,0,1-5.06,2.47C289.69,250.78,288.37,246,288.72,240.1Z"/><path class="cls-5" d="M298.49,231.36a4.87,4.87,0,0,1,1.16.23v17.68a5.06,5.06,0,0,1-2.25.35c-4.24-.25-5.37-4.42-5.07-9.46S294.84,231.15,298.49,231.36Z"/><path class="cls-2" d="M298.31,234.51a2.87,2.87,0,0,1,1.34.43v11a3.12,3.12,0,0,1-2.06.55c-2.77-.17-3.51-2.9-3.31-6.2S295.92,234.37,298.31,234.51Z"/><ellipse class="cls-4" cx="294.34" cy="210.97" rx="5.57" ry="9.07" transform="translate(-18.95 29.33) rotate(-5.53)"/><path class="cls-5" d="M295.89,202.82a4.07,4.07,0,0,1,3.76,1.91v12.8a4.1,4.1,0,0,1-2.26.87c-3.61.35-5.12-3-5.54-7.33S292.78,203.12,295.89,202.82Z"/><path class="cls-2" d="M296.15,205.51c1.81-.17,3.05,1.52,3.5,3.88v4a2.78,2.78,0,0,1-2.51,2.37c-2.37.23-3.36-2-3.63-4.8S294.12,205.71,296.15,205.51Z"/><path class="cls-2" d="M203.21,243.58s4.09,12.08,19.41,11.74c19.4-.43,15.08-23.74,34.38-26.47,13.52-1.91,25.29,6.82,23.49,34.9-2.55,39.55-49.36,41.8-49.36,41.8l-20.08-7.16"/><path class="cls-6" d="M231.13,305.55l-18.86-6.72h0a17.11,17.11,0,0,1,15.1-19.49c1.19-.12,2.44-.3,3.76-.55,20-3.83,17.2-36.43,35.07-37.45,11.8-.67,13.33,7.46,11.67,34.93C267.52,303.8,231.13,305.55,231.13,305.55Z"/><path class="cls-7" d="M231.13,305.55s46.81-2.25,49.36-41.8c1.8-28.08-10-36.81-23.49-34.9-19.3,2.73-15,26-34.38,26.47-15.32.34-19.41-11.74-19.41-11.74"/><ellipse class="cls-4" cx="234.22" cy="295.55" rx="12.13" ry="7.46" transform="translate(-132.67 208.36) rotate(-38.24)"/><ellipse class="cls-5" cx="236.29" cy="297.87" rx="10.47" ry="6.44" transform="translate(-133.66 210.14) rotate(-38.24)"/><ellipse class="cls-2" cx="236.29" cy="297.88" rx="6.85" ry="4.21" transform="translate(-133.67 210.15) rotate(-38.24)"/><ellipse class="cls-4" cx="257.55" cy="278.58" rx="10.6" ry="6.51" transform="translate(-121.84 277.05) rotate(-47.01)"/><ellipse class="cls-5" cx="259.65" cy="280.32" rx="9.15" ry="5.62" transform="translate(-122.44 279.13) rotate(-47.01)"/><ellipse class="cls-2" cx="259.66" cy="280.32" rx="5.99" ry="3.68" transform="translate(-122.44 279.14) rotate(-47.01)"/><ellipse class="cls-4" cx="267.46" cy="255.98" rx="5.57" ry="9.07"/><ellipse class="cls-5" cx="269.79" cy="255.84" rx="4.81" ry="7.83"/><ellipse class="cls-2" cx="269.79" cy="255.84" rx="3.15" ry="5.12"/><path class="cls-2" d="M203.13,324.08c11.67,11.28,26.05,8.84,40.79,4,9.69-3.17,24.58-6.65,32.28,7.82a10.71,10.71,0,0,1,1,6.32,36.21,36.21,0,0,1-14,2.78H192.72l-12-19.09C184.21,318.33,195,316.19,203.13,324.08Z"/><path class="cls-9" d="M263,298.39h.31A36.38,36.38,0,0,0,299.65,262v46.61A36.39,36.39,0,0,1,264.58,345C277,338.52,281.69,324,278.2,315.3c-5.94-14.84-17.07-13.34-27.1-10.74l-.07-.38A62.17,62.17,0,0,0,263,298.39Z"/><path class="cls-4" d="M272.2,334.29c3.9-5.76,5.19-12.94,3.21-17.88-5.17-12.93-13.89-11.61-26.6-8.13-3.94,1.08-7.67,2.11-10.95,2.11-19.82,0-25.92-10.31-26.17-10.75a3,3,0,0,1,1.1-4.05,3,3,0,0,1,4.1,1.05c.19.31,4.89,7.75,21,7.75,2.47,0,5.82-.92,9.37-1.89,10.43-2.86,26.2-7.19,33.75,11.69,2.73,6.81,1.23,16-3.81,23.46a31.21,31.21,0,0,1-5.83,6.44,36.43,36.43,0,0,1-8.07.91h-9A24.74,24.74,0,0,0,272.2,334.29Z"/><path class="cls-4" d="M176.75,312.23a3,3,0,0,1,3.26,2.71c1.85,20.39,20.33,29.7,20.6,29.83a3.48,3.48,0,0,1,.38.23H190.23c-6.49-5.31-14.86-14.86-16.2-29.51A3,3,0,0,1,176.75,312.23Z"/><path class="cls-4" d="M177.78,337.78a24.75,24.75,0,0,0,7.2-1.15,3,3,0,0,0-1.88-5.7c-1.76.58-7.28,1.74-9.53-.32a3,3,0,1,0-4,4.42A12,12,0,0,0,177.78,337.78Z"/><path class="cls-4" d="M203,331.42c5.89,3.2,9.41,8.09,7.1,12.34a6.07,6.07,0,0,1-.9,1.24H196.85c-.31-.15-.63-.31-.94-.48-5.88-3.2-9.78-7.4-7.09-12.34S197.15,328.22,203,331.42Z"/><path class="cls-5" d="M201.23,335.14c4.71,2.56,7.67,6.39,6.46,9.86h-15c-3.67-2.54-5.7-5.65-3.77-9.21C191.27,331.53,196.15,332.38,201.23,335.14Z"/><path class="cls-2" d="M200.16,337.1c3.33,1.81,5.32,4.57,4,7a3.16,3.16,0,0,1-.75.93h-6.27c-.33-.15-.67-.31-1-.5-3.33-1.8-5.53-4.18-4-7S196.83,335.29,200.16,337.1Z"/><path class="cls-4" d="M230,337.57c5.85,0,10.59,2.29,10.59,6.52a5.4,5.4,0,0,1-.08.91h-21a6.62,6.62,0,0,1-.06-.91C219.43,339.17,224.18,337.57,230,337.57Z"/><path class="cls-5" d="M239,345h-17.6c1-2.83,4.59-3.82,8.84-3.82S237.83,342.51,239,345Z"/><path class="cls-2" d="M235.53,345H224.72c.93-1.37,3-1.87,5.47-1.87S234.55,343.78,235.53,345Z"/><path class="cls-4" d="M255.94,334.48c4.84-1.28,9.26-.44,10.19,3.06.87,3.28-2.09,6.07-6.46,7.46h-9.13a4.63,4.63,0,0,1-1.93-2.8C247.53,338.13,251.1,335.77,255.94,334.48Z"/><path class="cls-5" d="M256.87,337.43c4.17-1.11,8-.38,8.79,2.64.51,1.92-.5,3.64-2.39,4.93H250.89a4.91,4.91,0,0,1-.35-.91C249.61,340.58,252.69,338.54,256.87,337.43Z"/><path class="cls-2" d="M257.29,339c2.74-.73,5.24-.25,5.77,1.73s-1.21,3.45-3.71,4.23H254.3a2.57,2.57,0,0,1-1.15-1.6C252.54,341.1,254.56,339.77,257.29,339Z"/><path class="cls-7" d="M165.81,175.57s0,15.82-15.81,15.82-15.81-15.82-15.81-15.82"/><circle class="cls-3" cx="227.22" cy="157.1" r="36.45"/><circle class="cls-3" cx="72.78" cy="157.1" r="36.45"/><circle class="cls-10" cx="227.22" cy="167.22" r="36.45"/><circle class="cls-10" cx="72.78" cy="167.22" r="36.45"/><path class="cls-11" d="M104.54,161.93A13.21,13.21,0,0,1,85.35,144a23,23,0,1,0,19.19,17.91ZM72.49,181.68A5.45,5.45,0,1,1,78,176.23,5.45,5.45,0,0,1,72.49,181.68Z"/><path class="cls-11" d="M240.27,161.8A13.22,13.22,0,0,1,221.2,144a24.25,24.25,0,0,0-3.32-.24,23,23,0,1,0,22.39,18Zm-32.21,19.88a5.45,5.45,0,1,1,5.45-5.45A5.45,5.45,0,0,1,208.06,181.68Z"/><ellipse class="cls-6" cx="257.5" cy="77.43" rx="18.07" ry="23.49" transform="translate(118.89 307.85) rotate(-75.71)"/><circle class="cls-6" cx="214.41" cy="69.45" r="11.2"/></g></svg>