<svg id="Layer_1" data-name="Layer 1" xmlns="http://www.w3.org/2000/svg" xmlns:xlink="http://www.w3.org/1999/xlink" viewBox="0 0 300 345"><defs><style>.cls-1{fill:url(#linear-gradient);}.cls-2{fill:#663723;}.cls-3{fill:#85482c;}.cls-4{fill:#995b3c;}.cls-5{fill:#4c281b;}.cls-6{fill:#2f2c38;}.cls-7{fill:#15141a;}.cls-8{fill:#dae6f5;}.cls-9{fill:#7ca1d5;}.cls-10,.cls-11{fill:none;stroke-linecap:round;stroke-miterlimit:10;stroke-width:4px;}.cls-10{stroke:#663723;}.cls-11{stroke:#4c281b;}.cls-12{fill:#bcd1e9;}.cls-13{fill:#aa715d;}</style><linearGradient id="linear-gradient" x1="150" y1="356.11" x2="150" y2="277.94" gradientUnits="userSpaceOnUse"><stop offset="0" stop-color="#2f2c38"/><stop offset="0.59" stop-color="#1d1b23"/><stop offset="1" stop-color="#15141a"/></linearGradient></defs><g id="underwater"><path class="cls-1" d="M263.62,345H36.38A36.38,36.38,0,0,1,0,308.62V259.14H300v49.48A36.38,36.38,0,0,1,263.62,345Z"/><path class="cls-2" d="M294.59,100V72.53a36.21,36.21,0,0,0-3-14.37,36.31,36.31,0,0,0-20.37-12.35,53.21,53.21,0,0,1-23.39,16.47c-22.81,8.17-36.76,1.7-54.13,9.19C187.66,74.09,183,85.84,179.51,100Z"/><path class="cls-3" d="M36.38,291.89H263.62A36.38,36.38,0,0,0,300,255.51V81.38A36.38,36.38,0,0,0,280.59,49.2a53.39,53.39,0,0,1-27.31,21.93c-22.81,8.17-36.77,1.7-54.13,9.19S176,169.85,176,169.85s-13.06-7.41-27.42-2.38-16.5,17-16.5,17-3.57-5.44-11.21-3.8A9.4,9.4,0,0,0,113,189.3S95,162,53.79,164.07,0,196,0,196v59.52A36.38,36.38,0,0,0,36.38,291.89Z"/><path class="cls-4" d="M280.59,49.2a53.39,53.39,0,0,1-27.31,21.93c-22.81,8.17-36.77,1.7-54.13,9.19S176,169.85,176,169.85s-13.06-7.41-27.42-2.38-16.5,17-16.5,17-3.57-5.44-11.21-3.8A9.4,9.4,0,0,0,113,189.3S95,162,53.79,164.07c-20.6,1-34,9-42.34,16.73v46.6a36.38,36.38,0,0,0,36.38,36.38H252.17a36.38,36.38,0,0,0,36.38-36.38V54.9A36.33,36.33,0,0,0,280.59,49.2Z"/><path class="cls-5" d="M162.19,48.81c9.32-1.57,13.32,14.24,21.21,14.91s26.72-2.45,33.41,11.45c2.06,4.28-.76,14.06-5.59,28.87L143,92.19C139.82,68,145.94,51.55,162.19,48.81Z"/><path class="cls-2" d="M155.15,54.71c9.22-2.05,14,13.53,22,13.78s26.55-3.83,33.95,9.71-8.17,54.12-11,69.7-4.34,44.68-20.93,43.4S163.83,174.85,161,157.09c-2.48-15.68-11-25.79-16.08-53.11C140.48,80,139.06,58.28,155.15,54.71Z"/><path class="cls-6" d="M263.62,276.36H241.51a31.63,31.63,0,0,0-61.62,0H36.38A36.38,36.38,0,0,1,0,240v22a36.38,36.38,0,0,0,36.38,36.38H263.62A36.38,36.38,0,0,0,300,262V240A36.38,36.38,0,0,1,263.62,276.36Z"/><path class="cls-7" d="M230.63,288.52v9.87L206,345H166.64l24.13-46.61v-9.87a19.93,19.93,0,0,1,39.86,0Z"/><path class="cls-3" d="M256,259.76a6.42,6.42,0,0,1-1.42-.25c-40.13-11.47-48.82-69.25-49.17-71.71a7,7,0,1,1,13.86-2c.12.81,7.86,51.28,39.16,60.22A7,7,0,0,1,256,259.76Z"/><path class="cls-8" d="M228.81,158.5a11.33,11.33,0,1,1,11.33-11.33A11.34,11.34,0,0,1,228.81,158.5Z"/><path class="cls-9" d="M228.81,137.34a9.83,9.83,0,1,1-9.83,9.83,9.83,9.83,0,0,1,9.83-9.83m0-3a12.83,12.83,0,1,0,12.83,12.83,12.84,12.84,0,0,0-12.83-12.83Z"/><circle class="cls-8" cx="216.81" cy="181.53" r="11.33"/><path class="cls-9" d="M216.81,171.7a9.83,9.83,0,1,1-9.83,9.83,9.83,9.83,0,0,1,9.83-9.83m0-3a12.83,12.83,0,1,0,12.83,12.83,12.84,12.84,0,0,0-12.83-12.83Z"/><circle class="cls-8" cx="234.42" cy="109.95" r="11.33"/><path class="cls-9" d="M234.42,100.12a9.83,9.83,0,1,1-9.83,9.83,9.83,9.83,0,0,1,9.83-9.83m0-3A12.83,12.83,0,1,0,247.25,110a12.85,12.85,0,0,0-12.83-12.83Z"/><path class="cls-8" d="M265.71,251.07a7,7,0,0,1-1.43-.15C223.41,242.43,210.5,185.44,210,183a7,7,0,0,1,13.68-3c.18.8,11.6,50.57,43.47,57.18a7,7,0,0,1-1.41,13.86Z"/><path class="cls-10" d="M106.75,198.87s3,25.79-9.3,37.54"/><line class="cls-10" x1="131.15" y1="209.6" x2="140.08" y2="224.66"/><line class="cls-10" x1="144.94" y1="188.92" x2="156.94" y2="195.81"/><path class="cls-7" d="M79.32,106.87a27.3,27.3,0,0,0-2.08,7.39A10.93,10.93,0,0,0,78.31,121a8.74,8.74,0,0,0,2.12,2.46,17.56,17.56,0,0,0,3,1.86L90.3,129a30,30,0,0,1,6.88,4.68,13.21,13.21,0,0,1,2.58,3.69,17.81,17.81,0,0,1,1.32,4.08A19.15,19.15,0,0,1,97.45,157,22.79,22.79,0,0,0,98,142.25c-.19-.57-.39-1.14-.63-1.68l-.36-.8-.41-.76a10.77,10.77,0,0,0-2.07-2.57,17.29,17.29,0,0,0-2.85-2c-1-.64-2.17-1.25-3.31-1.87-2.27-1.24-4.59-2.51-6.84-3.89a18.26,18.26,0,0,1-3.47-2.53,11.13,11.13,0,0,1-2.59-3.72,12.44,12.44,0,0,1-.15-8.54A19.7,19.7,0,0,1,79.32,106.87Z"/><path class="cls-7" d="M116.77,111.64a32,32,0,0,0-1.52,5.83,13.19,13.19,0,0,0,.14,5.48,7,7,0,0,0,1,2.23l.85,1.2.87,1.28a50.89,50.89,0,0,1,3.17,5.42,26.42,26.42,0,0,1,2.23,6.1,14.78,14.78,0,0,1,0,6.78,12.38,12.38,0,0,1-3.33,5.81,16.6,16.6,0,0,1-5.29,3.45,27.4,27.4,0,0,0,3.75-4.68,11.53,11.53,0,0,0,1.76-5.13c.33-3.52-1.06-7.09-2.75-10.56-.85-1.74-1.82-3.47-2.8-5.2l-.75-1.31-.37-.65-.4-.72a9.55,9.55,0,0,1-1.08-3.46,13.52,13.52,0,0,1,1.06-6.57A18,18,0,0,1,116.77,111.64Z"/><path class="cls-11" d="M165.11,147.17s12.39,4,19.66-4.17"/><path class="cls-11" d="M167.66,157a17.61,17.61,0,0,0,13.53,4.09"/><path class="cls-8" d="M76.27,75.29c.7,5-2.35,12.79-7.36,13.5s-10.09-5.94-10.79-11a9.16,9.16,0,0,1,18.15-2.55Z"/><path class="cls-12" d="M76.27,75.29A9.14,9.14,0,0,0,73,69.48a9.16,9.16,0,0,0-4.91,3.67c-2.8,4.21-3.41,12.55.8,15.35.12.08.26.14.39.21C74.06,87.7,77,80.18,76.27,75.29Z"/><path class="cls-8" d="M86.4,84.32c-2.8,4.21-10.25,8-14.46,5.2s-3.6-11.14-.8-15.35A9.16,9.16,0,1,1,86.4,84.32Z"/><circle class="cls-6" cx="67.03" cy="90.49" r="8.33"/><ellipse class="cls-13" cx="43.79" cy="184.44" rx="16.79" ry="11.9" transform="translate(-42.48 15.64) rotate(-13.71)"/><circle class="cls-13" cx="75.36" cy="183.19" r="8.39"/></g></svg>